<?xml version="1.0" encoding="UTF-8" standalone="no"?>
<!-- Created with Inkscape (http://www.inkscape.org/) -->

<svg
   width="108.72312mm"
   height="108.72312mm"
   viewBox="0 0 108.72312 108.72312"
   version="1.1"
   id="svg1"
   xml:space="preserve"
   inkscape:export-filename="mobileappiconplaceholder.svg"
   inkscape:export-xdpi="96"
   inkscape:export-ydpi="96"
   xmlns:inkscape="http://www.inkscape.org/namespaces/inkscape"
   xmlns:sodipodi="http://sodipodi.sourceforge.net/DTD/sodipodi-0.dtd"
   xmlns="http://www.w3.org/2000/svg"
   xmlns:svg="http://www.w3.org/2000/svg"><sodipodi:namedview
     id="namedview1"
     pagecolor="#ffffff"
     bordercolor="#000000"
     borderopacity="0.25"
     inkscape:showpageshadow="2"
     inkscape:pageopacity="0.0"
     inkscape:pagecheckerboard="0"
     inkscape:deskcolor="#d1d1d1"
     inkscape:document-units="mm" /><defs
     id="defs1" /><g
     inkscape:label="Layer 1"
     inkscape:groupmode="layer"
     id="layer1"
     transform="translate(-79.264612,-36.443503)"><circle
       style="fill:#000000;stroke:none;stroke-width:0;stroke-linejoin:miter;stroke-miterlimit:0;stroke-dasharray:none;stroke-dashoffset:0;stroke-opacity:1"
       id="path3"
       transform="rotate(-89.189264)"
       inkscape:label="path3"
       cx="-88.90522"
       cy="134.89764"
       r="54.361557" /><g
       style="fill:#ffffff"
       id="g1"
       transform="matrix(0.79375,0,0,0.79375,87.104915,69.781971)"
       inkscape:label="g1"><path
         d="m 33.375,0 c -2.835937,0.191406 -5.871094,1.878906 -7.75,4.15625 -1.644531,2.003906 -3.023437,4.945313 -2.5,8 -0.46875,-0.144531 -0.894531,-0.160156 -1.40625,-0.34375 -1.394531,-0.496094 -2.988281,-1.03125 -4.96875,-1.03125 -3.933594,0 -7.960937,2.339844 -10.5,6.25 -3.695312,5.679688 -2.953125,15.675781 2.65625,24.21875 0.988281,1.5 2.140625,3.136719 3.5625,4.4375 1.421875,1.300781 3.140625,2.292969 5.15625,2.3125 1.722656,0.01953 2.921875,-0.554687 4,-1.03125 1.078125,-0.476562 2.082031,-0.898437 3.96875,-0.90625 0.01172,0 0.01953,0 0.03125,0 1.878906,-0.01563 2.851563,0.398438 3.90625,0.875 1.054688,0.476563 2.242188,1.078125 3.96875,1.0625 2.054688,-0.01563 3.800781,-1.140625 5.25,-2.53125 1.449219,-1.390625 2.640625,-3.097656 3.625,-4.59375 1.410156,-2.148437 1.976563,-3.320312 3.0625,-5.71875 0.113281,-0.25 0.117188,-0.539062 0.0078,-0.792969 C 45.339844,34.109375 45.132813,33.910156 44.875,33.8125 41.320313,32.46875 39.292969,29.324219 39,26 c -0.292969,-3.324219 1.113281,-6.746094 4.65625,-8.6875 0.261719,-0.140625 0.445313,-0.386719 0.507813,-0.675781 0.05859,-0.289063 -0.01172,-0.59375 -0.195313,-0.824219 -2.542969,-3.160156 -6.121094,-5.03125 -9.625,-5.03125 -2.234375,0 -3.875,0.527344 -5.21875,1.03125 -0.222656,0.08594 -0.386719,0.07813 -0.59375,0.15625 C 29.894531,11.25 31.097656,10.253906 32,9.09375 33.640625,6.988281 34.90625,3.992188 34.4375,0.84375 34.359375,0.328125 33.894531,-0.0390625 33.375,0 Z m -1.0625,2.375 c -0.06641,2.019531 -0.757812,3.996094 -1.90625,5.46875 -1.203125,1.546875 -3.226562,2.617188 -5.1875,2.9375 0.03516,-1.941406 0.800781,-3.953125 1.96875,-5.375 1.226563,-1.484375 3.257813,-2.554687 5.125,-3.03125 z M 16.75,12.78125 c 1.613281,0 2.90625,0.417969 4.28125,0.90625 1.375,0.488281 2.824219,1.0625 4.53125,1.0625 1.667969,0 2.988281,-0.578125 4.28125,-1.0625 1.292969,-0.484375 2.582031,-0.90625 4.5,-0.90625 2.503906,0 5.210938,1.300781 7.34375,3.5625 -3.414062,2.410156 -5.011719,6.167969 -4.6875,9.8125 0.324219,3.683594 2.542969,7.179688 6.1875,9 -0.789062,1.71875 -1.308594,2.855469 -2.46875,4.625 -0.957031,1.457031 -2.09375,3.050781 -3.34375,4.25 -1.25,1.199219 -2.574219,1.957031 -3.90625,1.96875 -1.285156,0.01172 -2.015625,-0.371094 -3.125,-0.875 -1.109375,-0.503906 -2.542969,-1.082031 -4.75,-1.0625 -2.203125,0.01172 -3.65625,0.566406 -4.78125,1.0625 -1.125,0.496094 -1.863281,0.886719 -3.15625,0.875 -1.367187,-0.01172 -2.636719,-0.675781 -3.84375,-1.78125 -1.207031,-1.105469 -2.296875,-2.613281 -3.25,-4.0625 -5.25,-8 -5.671875,-17.398437 -2.65625,-22.03125 2.210938,-3.402344 5.722656,-5.34375 8.84375,-5.34375 z"
         id="path1-8" /></g><g
       style="fill:#ffffff"
       id="g2"
       transform="matrix(0.79375,0,0,0.79375,140.96321,71.126953)"><path
         d="M 16.375,-0.03125 C 16.332031,-0.0234375 16.289063,-0.0117188 16.25,0 15.921875,0.0742188 15.652344,0.304688 15.53125,0.621094 15.410156,0.9375 15.457031,1.289063 15.65625,1.5625 l 2.125,3.1875 C 14.183594,6.640625 11.601563,9.902344 11,13.78125 c 0,0.01172 0,0.01953 0,0.03125 0,0.01172 0,0.01953 0,0.03125 0,0.03125 0,0.0625 0,0.09375 0,0.01953 0,0.04297 0,0.0625 -0.0039,0.05078 -0.0039,0.105469 0,0.15625 V 15.5625 C 10.40625,15.214844 9.734375,15 9,15 6.800781,15 5,16.800781 5,19 v 12 c 0,2.199219 1.800781,4 4,4 0.734375,0 1.40625,-0.214844 2,-0.5625 V 37 c 0,1.644531 1.355469,3 3,3 h 1 v 6 c 0,2.199219 1.800781,4 4,4 2.199219,0 4,-1.800781 4,-4 v -6 h 4 v 6 c 0,2.199219 1.800781,4 4,4 2.199219,0 4,-1.800781 4,-4 v -6 h 1 c 1.644531,0 3,-1.355469 3,-3 V 34.4375 C 39.59375,34.785156 40.265625,35 41,35 c 2.199219,0 4,-1.800781 4,-4 V 19 c 0,-2.199219 -1.800781,-4 -4,-4 -0.734375,0 -1.40625,0.214844 -2,0.5625 v -1.375 C 39.01172,14.09375 39.01172,14 39,13.90625 39,13.89453 39,13.88672 39,13.875 39,13.86328 39,13.85547 39,13.84375 38.417969,9.9375 35.835938,6.648438 32.21875,4.75 l 2.125,-3.1875 C 34.589844,1.226563 34.597656,0.773438 34.367188,0.425781 34.140625,0.078125 33.71875,-0.09375 33.3125,0 33.054688,0.0585938 32.828125,0.214844 32.6875,0.4375 L 30.34375,3.90625 C 28.695313,3.3125 26.882813,3 25,3 23.117188,3 21.304688,3.3125 19.65625,3.90625 L 17.3125,0.4375 C 17.113281,0.117188 16.75,-0.0625 16.375,-0.03125 Z M 25,5 c 1.878906,0 3.640625,0.367188 5.1875,1.03125 C 30.21875,6.042969 30.25,6.054688 30.28125,6.0625 33.410156,7.433594 35.6875,10 36.5625,13 H 13.4375 C 14.300781,10.042969 16.53125,7.507813 19.59375,6.125 19.66016,6.101563 19.722656,6.070313 19.78125,6.03125 21.335938,5.359375 23.109375,5 25,5 Z M 19.5,8 C 18.667969,8 18,8.671875 18,9.5 18,10.332031 18.667969,11 19.5,11 20.328125,11 21,10.332031 21,9.5 21,8.671875 20.328125,8 19.5,8 Z m 11,0 C 29.671875,8 29,8.671875 29,9.5 29,10.332031 29.671875,11 30.5,11 31.332031,11 32,10.332031 32,9.5 32,8.671875 31.332031,8 30.5,8 Z M 13,15 h 24 v 22 c 0,0.5625 -0.4375,1 -1,1 h -7.8125 c -0.132812,-0.02734 -0.273437,-0.02734 -0.40625,0 H 16.1875 c -0.132812,-0.02734 -0.273437,-0.02734 -0.40625,0 H 14 c -0.5625,0 -1,-0.4375 -1,-1 z m -4,2 c 1.117188,0 2,0.882813 2,2 v 12 c 0,1.117188 -0.882812,2 -2,2 C 7.882813,33 7,32.117188 7,31 V 19 c 0,-1.117187 0.882813,-2 2,-2 z m 32,0 c 1.117188,0 2,0.882813 2,2 v 12 c 0,1.117188 -0.882812,2 -2,2 -1.117187,0 -2,-0.882812 -2,-2 V 19 c 0,-1.117187 0.882813,-2 2,-2 z M 17,40 h 4 v 6 c 0,1.117188 -0.882812,2 -2,2 -1.117187,0 -2,-0.882812 -2,-2 z m 12,0 h 4 v 6 c 0,1.117188 -0.882812,2 -2,2 -1.117187,0 -2,-0.882812 -2,-2 z"
         id="path1-5" /></g></g></svg>
