<?xml version="1.0" encoding="UTF-8" standalone="no"?>
<!--Generator: Xara Designer (www.xara.com), SVG filter version: 6.2.0.0-->

<svg
   stroke-width="0.501"
   stroke-linejoin="bevel"
   fill-rule="evenodd"
   version="1.1"
   overflow="visible"
   width="253.295pt"
   height="253.29501pt"
   viewBox="0 0 253.295 253.29501"
   id="svg11"
   sodipodi:docname="macrosmanagericon.svg"
   xmlns:inkscape="http://www.inkscape.org/namespaces/inkscape"
   xmlns:sodipodi="http://sodipodi.sourceforge.net/DTD/sodipodi-0.dtd"
   xmlns="http://www.w3.org/2000/svg"
   xmlns:svg="http://www.w3.org/2000/svg">
  <sodipodi:namedview
     id="namedview11"
     pagecolor="#ffffff"
     bordercolor="#000000"
     borderopacity="0.25"
     inkscape:showpageshadow="2"
     inkscape:pageopacity="0.0"
     inkscape:pagecheckerboard="0"
     inkscape:deskcolor="#d1d1d1"
     inkscape:document-units="pt" />
  <defs
     id="defs1" />
  <g
     id="Document"
     fill="none"
     stroke="#000000"
     font-family="'Times New Roman'"
     font-size="16px"
     transform="matrix(1,0,0,-1,-49.203495,-191.70351)">
    <g
       id="Spread"
       transform="translate(0,-792)">
      <g
         id="Layer 1">
        <g
           id="Group"
           stroke-linejoin="miter"
           stroke="none">
          <g
             id="Group_1">
            <path
               d="m 79.101,555.399 c 45.126,53.406 125.094,60.126 178.5,15 53.406,-45.126 60.126,-125.094 15,-178.5 -45.126,-53.406 -125.094,-60.126 -178.5,-15 -53.406,45.126 -60.126,125.094 -15,178.5 z"
               fill="#b2b2b2"
               stroke-width="0.025"
               marker-start="none"
               marker-end="none"
               stroke-miterlimit="79.8403"
               id="path1" />
            <path
               d="M 88.777,547.224 C 129.39,595.289 201.36,601.337 249.426,560.723 297.491,520.11 303.539,448.14 262.925,400.074 222.312,352.009 150.342,345.961 102.276,386.575 54.211,427.188 48.163,499.158 88.777,547.224 Z"
               fill="#cccccc"
               stroke-width="0.022"
               marker-start="none"
               marker-end="none"
               stroke-miterlimit="79.8403"
               id="path2" />
          </g>
          <g
             id="Group_2"
             fill-rule="nonzero"
             stroke-width="0.025">
            <path
               d="m 177.982,494.203 c 0.02,-0.045 0.039,-0.09 0.058,-0.135 0.02,-0.047 0.039,-0.094 0.059,-0.141 -0.039,0.092 -0.078,0.184 -0.117,0.276 z m 49.194,58.631 0.138,0.06 0.446,0.195 c 0.323,0.126 0.638,0.231 0.961,0.322 0.216,0.061 0.453,0.114 0.726,0.16 0.319,0.033 0.639,0.064 0.958,0.095 0.46,0.045 0.936,0.091 1.408,0.144 0.215,0.023 0.431,0.048 0.645,0.073 0.652,0.076 1.326,0.155 1.999,0.196 0.491,0.029 0.991,0.03 1.477,0.031 0.343,10e-4 0.733,10e-4 1.116,0.015 0.298,0.01 0.602,0.027 0.871,0.042 0.462,0.026 0.94,0.053 1.414,0.053 0.121,0 0.243,-10e-4 0.364,-0.005 0.025,-10e-4 0.05,-0.002 0.076,-0.004 0.248,-0.109 0.496,-0.219 0.744,-0.329 0.447,-0.198 1.034,-0.464 1.611,-0.761 0.781,-0.402 1.581,-0.909 2.378,-1.508 0.383,-0.31 0.679,-0.592 0.931,-0.887 0.078,-0.093 0.156,-0.187 0.233,-0.281 0.151,-0.214 0.327,-0.468 0.492,-0.733 0.141,-0.227 0.272,-0.478 0.425,-0.815 0.168,-0.453 0.293,-0.888 0.382,-1.332 0.014,-0.332 -0.014,-0.671 -0.041,-0.999 -0.009,-0.114 -0.018,-0.226 -0.026,-0.338 -0.018,-0.267 -0.034,-0.535 -0.049,-0.802 l -0.014,-0.244 -0.015,-0.245 c -0.013,-0.203 -0.024,-0.406 -0.035,-0.609 l -0.001,-0.017 c -0.031,-0.552 -0.062,-1.123 -0.12,-1.686 -0.121,-0.769 -0.261,-1.449 -0.43,-2.081 -0.186,-0.701 -0.478,-1.404 -0.739,-2.03 -0.277,-0.64 -0.612,-1.393 -1.005,-2.124 -0.487,-0.908 -0.895,-1.653 -1.283,-2.344 -0.13,-0.232 -0.258,-0.469 -0.381,-0.699 l -0.009,-0.015 c -0.076,-0.142 -0.153,-0.284 -0.23,-0.426 -0.16,-0.292 -0.34,-0.581 -0.514,-0.859 l -0.059,-0.094 -0.117,-0.188 -0.08,-0.131 c -0.426,-0.689 -0.865,-1.401 -1.268,-2.121 -0.126,-0.226 -0.263,-0.459 -0.373,-0.647 -0.095,-0.162 -0.19,-0.324 -0.283,-0.487 -0.059,-0.104 -0.12,-0.208 -0.18,-0.313 -0.155,-0.265 -0.314,-0.54 -0.454,-0.816 -0.457,-0.911 -0.844,-1.894 -1.149,-2.924 -0.127,-0.433 -0.261,-0.895 -0.376,-1.361 -0.108,-0.438 -0.197,-0.888 -0.284,-1.324 l -0.003,-0.017 -0.005,-0.024 c -0.197,-0.991 -0.301,-2.04 -0.319,-3.206 -0.01,-0.623 -0.001,-1.272 0.006,-1.843 l 0.002,-0.143 c 0.003,-0.231 0.006,-0.461 0.008,-0.691 0.003,-0.537 0.004,-1.073 0.005,-1.62 0.001,-0.38 0.002,-0.76 0.004,-1.139 0.003,-0.849 0.02,-1.725 0.051,-2.677 0.023,-0.703 0.02,-1.429 0.017,-2.069 l -0.001,-0.152 c 0,-0.201 -0.001,-0.403 -0.001,-0.605 0,-0.486 0.002,-0.972 0.004,-1.459 v -0.04 c 0.005,-1.028 0.009,-2.09 -0.004,-3.135 -0.019,-1.456 -0.115,-2.897 -0.284,-4.284 -0.056,-0.373 -0.118,-0.758 -0.183,-1.145 -0.06,-0.345 -0.147,-0.687 -0.231,-1.019 -0.027,-0.105 -0.054,-0.21 -0.08,-0.315 l -0.127,-0.519 c -0.167,-0.683 -0.339,-1.389 -0.529,-2.088 -0.24,-0.886 -0.548,-1.747 -0.844,-2.551 -0.085,-0.232 -0.178,-0.465 -0.268,-0.692 l -0.009,-0.023 c -0.069,-0.175 -0.138,-0.349 -0.205,-0.525 -0.132,-0.348 -0.266,-0.695 -0.401,-1.042 -0.265,-0.591 -0.538,-1.184 -0.81,-1.761 -0.316,-0.668 -0.65,-1.319 -1.055,-2.09 -0.37,-0.705 -0.715,-1.307 -1.056,-1.84 -0.341,-0.535 -0.724,-1.079 -1.242,-1.764 l -0.009,-0.011 c -0.251,-0.322 -0.512,-0.656 -0.801,-0.964 -0.384,-0.41 -0.783,-0.8 -1.228,-1.23 -0.594,-0.575 -1.26,-1.154 -2.096,-1.822 -0.55,-0.39 -1.085,-0.734 -1.634,-1.053 -0.535,-0.31 -1.112,-0.624 -1.869,-1.018 -0.435,-0.226 -0.89,-0.435 -1.338,-0.639 -0.182,-0.084 -0.365,-0.167 -0.546,-0.252 -0.403,-0.188 -0.843,-0.384 -1.387,-0.618 -0.582,-0.227 -1.037,-0.374 -1.475,-0.48 -0.405,-0.097 -0.849,-0.184 -1.359,-0.268 -0.347,-0.031 -0.739,-0.067 -1.125,-0.072 -0.398,-0.004 -0.84,-0.007 -1.389,-0.008 h -0.512 c -0.972,0 -1.701,0.003 -2.363,0.01 -0.838,0.008 -1.715,0.035 -2.682,0.081 -0.193,0.009 -0.387,0.017 -0.581,0.024 l -0.088,0.004 c -0.658,0.025 -1.34,0.05 -2.002,0.135 -0.131,0.017 -0.262,0.033 -0.392,0.05 -0.81,0.122 -1.549,0.249 -2.261,0.387 -0.628,0.123 -1.256,0.306 -1.863,0.484 l -0.014,0.004 c -0.191,0.056 -0.38,0.112 -0.57,0.166 -0.644,0.181 -1.287,0.406 -1.91,0.624 -0.164,0.057 -0.329,0.115 -0.493,0.171 -0.588,0.203 -1.207,0.437 -1.947,0.736 -0.369,0.167 -0.68,0.309 -0.996,0.458 -0.409,0.193 -0.815,0.407 -1.172,0.595 -0.299,0.158 -0.599,0.351 -0.862,0.522 l -0.172,0.111 c -0.386,0.247 -0.773,0.498 -1.217,0.788 l -0.075,0.049 c -1.257,0.82 -2.556,1.667 -3.78,2.579 -1.427,1.182 -2.788,2.586 -4.286,4.42 -0.429,0.566 -0.852,1.146 -1.258,1.725 -0.405,0.577 -0.791,1.185 -1.168,1.779 l -0.239,0.377 c -0.383,0.602 -0.774,1.268 -1.231,2.098 l -0.118,0.213 -0.066,0.12 c -0.278,0.5 -0.563,1.015 -0.81,1.541 -0.049,0.102 -0.096,0.205 -0.141,0.308 l 0.021,-0.052 c 0.009,-0.022 0.018,-0.043 0.027,-0.065 -0.009,0.021 -0.018,0.041 -0.026,0.062 l 0.024,-0.063 c -0.07,0.166 -0.14,0.332 -0.21,0.498 l -0.042,0.113 c -0.112,0.301 -0.228,0.613 -0.326,0.925 -0.125,0.395 -0.239,0.793 -0.353,1.2 -0.183,0.65 -0.302,1.306 -0.428,2.035 -0.087,0.783 -0.128,1.43 -0.129,2.037 -0.001,0.842 0.008,1.73 0.026,2.711 0.017,0.944 0.057,1.796 0.122,2.606 l 0.002,0.017 c 0.016,0.198 0.032,0.395 0.047,0.592 0.044,0.553 0.087,1.095 0.136,1.636 0.163,0.948 0.403,1.837 0.7,2.9 0.14,0.501 0.308,1.004 0.471,1.491 l 0.011,0.031 0.032,0.095 c 0.127,0.381 0.282,0.762 0.43,1.12 0.293,0.634 0.581,1.252 0.889,1.859 0.241,0.477 0.509,0.949 0.768,1.405 l 0.009,0.013 0.062,0.11 c 0.067,0.118 0.134,0.235 0.2,0.353 0.688,1.225 1.526,2.394 2.329,3.475 0.335,0.418 0.682,0.825 1.033,1.211 0.1,0.11 0.2,0.22 0.299,0.331 0.349,0.385 0.709,0.783 1.077,1.167 0.446,0.464 0.926,0.901 1.39,1.323 l 0.012,0.011 c 0.405,0.368 0.788,0.696 1.17,1.003 0.714,0.529 1.478,1.088 2.285,1.581 0.776,0.475 1.607,0.912 2.47,1.298 0.469,0.195 0.937,0.394 1.391,0.589 l 0.202,0.084 c 1.507,0.626 3.065,1.273 4.577,1.957 0.878,0.373 1.684,0.74 2.463,1.125 0.329,0.162 0.659,0.322 0.989,0.481 l 0.048,0.023 c 0.414,0.2 0.842,0.407 1.26,0.617 0.103,0.052 0.207,0.104 0.312,0.156 l 0.119,0.059 c 0.642,0.32 1.306,0.65 1.928,1.035 0.898,0.556 1.736,1.255 2.509,1.928 l 0.242,0.211 0.059,0.051 c 0.568,0.495 1.154,1.007 1.734,1.506 0.549,0.472 1.075,0.987 1.586,1.485 l 0.347,0.339 0.009,0.009 c 0.549,0.532 1.129,1.103 1.825,1.795 0.608,0.605 1.251,1.253 1.837,1.944 1.233,1.452 2.416,2.709 3.616,3.845 0.588,0.556 1.235,1.149 1.978,1.814 0.375,0.335 0.781,0.665 1.14,0.956 l 0.009,0.007 c 0.265,0.216 0.539,0.439 0.804,0.665 0.082,0.07 0.164,0.14 0.249,0.208 0.637,0.437 1.296,0.82 1.963,1.142 0.121,0.059 0.243,0.116 0.365,0.171 l -0.022,-0.009 -0.048,-0.019 c -0.015,-0.006 -0.031,-0.013 -0.046,-0.019 0.014,0.006 0.027,0.011 0.04,0.017 l -0.04,-0.015 c 0.278,0.119 0.555,0.24 0.832,0.361 z m 1.519,4.975 c -0.189,0 -0.376,-0.019 -0.563,-0.04 -0.396,-0.043 -0.791,-0.096 -1.182,-0.175 -0.838,-0.171 -1.643,-0.522 -2.44,-0.82 -0.56,-0.21 -1.123,-0.465 -1.65,-0.752 -0.374,-0.202 -0.744,-0.425 -1.087,-0.677 -0.865,-0.636 -1.652,-1.364 -2.48,-2.045 -0.669,-0.55 -1.33,-1.111 -1.963,-1.702 -1.287,-1.203 -2.483,-2.498 -3.641,-3.825 -0.593,-0.679 -1.159,-1.374 -1.794,-2.015 -0.613,-0.62 -1.245,-1.224 -1.879,-1.823 -0.64,-0.605 -1.266,-1.224 -1.899,-1.837 -0.646,-0.624 -1.329,-1.208 -2.004,-1.801 -0.513,-0.45 -1.029,-0.894 -1.557,-1.324 -0.48,-0.345 -0.981,-0.65 -1.504,-0.929 -0.297,-0.159 -0.608,-0.295 -0.909,-0.444 -0.362,-0.179 -0.724,-0.358 -1.086,-0.536 -1.208,-0.594 -2.408,-1.21 -3.642,-1.746 -0.726,-0.307 -1.445,-0.628 -2.166,-0.947 -0.457,-0.191 -0.914,-0.381 -1.375,-0.56 -0.319,-0.125 -0.643,-0.237 -0.961,-0.366 -0.396,-0.161 -0.788,-0.33 -1.18,-0.5 -0.87,-0.359 -1.727,-0.74 -2.56,-1.18 -0.386,-0.204 -0.772,-0.412 -1.143,-0.642 -0.384,-0.237 -0.756,-0.49 -1.128,-0.746 -1.57,-1.081 -3.034,-2.299 -4.388,-3.64 -0.295,-0.291 -0.573,-0.593 -0.845,-0.905 -0.281,-0.324 -0.572,-0.64 -0.853,-0.965 -0.311,-0.359 -0.62,-0.718 -0.919,-1.087 -0.381,-0.471 -0.738,-0.962 -1.099,-1.448 -1.043,-1.408 -1.941,-2.927 -2.798,-4.454 -0.212,-0.376 -0.389,-0.777 -0.578,-1.166 -0.194,-0.401 -0.381,-0.809 -0.561,-1.217 -0.251,-0.571 -0.482,-1.154 -0.7,-1.739 -0.158,-0.425 -0.285,-0.86 -0.416,-1.294 -0.261,-0.865 -0.487,-1.74 -0.7,-2.617 -0.258,-1.063 -0.371,-2.153 -0.45,-3.24 -0.065,-0.892 -0.174,-1.779 -0.207,-2.674 -0.034,-0.916 -0.04,-1.832 -0.04,-2.748 -0.001,-0.443 -0.012,-0.89 0.009,-1.332 0.023,-0.499 0.056,-0.992 0.099,-1.488 0.053,-0.607 0.155,-1.219 0.266,-1.818 0.077,-0.416 0.151,-0.835 0.254,-1.245 0.114,-0.454 0.225,-0.911 0.367,-1.357 0.151,-0.472 0.311,-0.937 0.484,-1.401 0.381,-1.018 0.87,-1.987 1.385,-2.942 0.888,-1.649 1.936,-3.202 2.981,-4.754 1.108,-1.643 2.344,-3.205 3.664,-4.681 0.572,-0.64 1.162,-1.274 1.803,-1.847 0.475,-0.424 0.954,-0.83 1.464,-1.213 0.365,-0.273 0.733,-0.537 1.106,-0.799 1.496,-1.047 3.034,-2.03 4.577,-3.005 0.749,-0.472 1.535,-0.88 2.338,-1.25 0.987,-0.454 1.984,-0.89 3.004,-1.265 0.904,-0.334 1.815,-0.645 2.732,-0.944 0.866,-0.283 1.756,-0.504 2.642,-0.714 0.414,-0.098 0.837,-0.166 1.256,-0.234 0.615,-0.101 1.23,-0.193 1.848,-0.275 0.924,-0.123 1.845,-0.209 2.776,-0.258 0.881,-0.046 1.762,-0.106 2.644,-0.126 0.95,-0.02 1.9,-0.03 2.85,-0.036 0.935,-0.007 1.869,-0.014 2.802,0.019 0.633,0.023 1.261,0.131 1.888,0.215 0.419,0.058 0.855,0.143 1.262,0.261 0.474,0.137 0.934,0.29 1.393,0.472 0.59,0.236 1.172,0.496 1.751,0.758 0.828,0.376 1.655,0.754 2.473,1.15 0.792,0.383 1.568,0.819 2.321,1.274 0.936,0.565 1.808,1.226 2.646,1.929 0.705,0.59 1.37,1.218 2.021,1.867 0.789,0.786 1.462,1.661 2.139,2.544 0.258,0.337 0.51,0.677 0.752,1.025 0.276,0.397 0.532,0.802 0.788,1.212 0.234,0.374 0.44,0.77 0.649,1.159 0.221,0.413 0.436,0.828 0.652,1.243 0.422,0.815 0.802,1.651 1.19,2.482 0.468,1.004 0.853,2.042 1.243,3.078 0.307,0.817 0.662,1.62 0.92,2.454 0.284,0.917 0.55,1.838 0.798,2.765 0.236,0.875 0.475,1.744 0.641,2.635 0.202,1.082 0.333,2.18 0.426,3.276 0.073,0.864 0.141,1.727 0.165,2.594 0.026,0.944 0.031,1.888 0.039,2.832 0.007,0.878 0.02,1.756 0.017,2.634 -0.003,0.948 -0.023,1.892 -0.061,2.839 -0.073,1.796 -0.071,3.595 -0.062,5.392 0.004,0.659 0.007,1.318 0.01,1.977 0.003,0.562 0.037,1.119 0.086,1.679 0.123,0.748 0.274,1.49 0.445,2.23 0.097,0.416 0.223,0.837 0.352,1.244 0.098,0.307 0.201,0.61 0.316,0.91 0.343,0.724 0.756,1.414 1.156,2.108 0.418,0.726 0.863,1.439 1.299,2.153 0.468,0.766 0.961,1.515 1.395,2.3 0.432,0.782 0.882,1.553 1.32,2.333 0.432,0.769 0.835,1.557 1.2,2.361 0.424,0.937 0.827,1.891 1.182,2.857 0.147,0.4 0.275,0.798 0.378,1.211 0.11,0.438 0.192,0.884 0.276,1.328 0.193,1.026 0.35,2.059 0.36,3.105 0.008,0.867 -0.04,1.733 -0.092,2.599 -0.014,0.236 -0.026,0.474 -0.051,0.71 -0.038,0.36 -0.079,0.721 -0.194,1.064 -0.043,0.13 -0.091,0.255 -0.141,0.382 -0.206,0.524 -0.441,1.063 -0.751,1.538 -0.376,0.575 -0.8,1.127 -1.301,1.597 -0.412,0.388 -0.865,0.734 -1.324,1.066 -0.845,0.611 -1.865,0.971 -2.863,1.24 -1.143,0.308 -2.333,0.473 -3.516,0.518 -0.184,0.132 -0.378,0.253 -0.584,0.358 -0.842,0.428 -1.748,0.725 -2.657,0.972 -0.411,0.112 -0.82,0.227 -1.227,0.347 -0.413,0.122 -0.819,0.264 -1.232,0.384 -0.806,0.234 -1.655,0.365 -2.484,0.482 -1.04,0.148 -2.083,0.268 -3.128,0.369 -0.423,0.041 -0.844,0.077 -1.269,0.079 z"
               fill="#375700"
               marker-start="none"
               marker-end="none"
               id="path3" />
            <path
               d="m 209.504,489.241 c -0.615,0.012 -1.153,0.027 -1.645,0.045 -0.561,0.021 -1.059,0.06 -1.523,0.118 l -0.071,0.009 c -0.694,0.087 -1.412,0.177 -2.109,0.322 -1.198,0.25 -2.408,0.656 -3.595,1.208 -0.459,0.214 -0.935,0.434 -1.386,0.705 -0.471,0.282 -0.933,0.587 -1.413,0.933 -0.515,0.37 -1.107,0.806 -1.627,1.287 -0.457,0.423 -0.86,0.826 -1.231,1.232 -0.125,0.136 -0.241,0.285 -0.354,0.429 -0.044,0.057 -0.088,0.113 -0.133,0.169 -0.372,0.465 -0.634,0.83 -0.849,1.183 -0.268,0.439 -0.502,0.934 -0.738,1.559 -0.148,0.393 -0.241,0.72 -0.292,1.027 -0.109,0.661 -0.157,1.187 -0.156,1.706 0.002,1.022 0.004,2.079 0.06,3.126 0.056,1.058 0.183,2.438 0.668,3.732 0.186,0.498 0.352,0.902 0.522,1.274 l 0.035,0.078 c 0.09,0.198 0.183,0.402 0.295,0.59 0.334,0.564 0.753,1.142 1.279,1.769 0.293,0.347 0.632,0.703 1.066,1.118 0.231,0.221 0.444,0.415 0.652,0.594 0.238,0.205 0.497,0.397 0.748,0.583 0.065,0.049 0.131,0.097 0.196,0.146 0.453,0.339 0.914,0.653 1.41,0.961 0.41,0.254 0.849,0.47 1.275,0.68 l 0.093,0.045 c 0.235,0.116 0.479,0.226 0.715,0.332 l 0.015,0.006 c 0.418,0.189 0.863,0.383 1.309,0.511 0.621,0.179 1.338,0.314 2.191,0.413 0.548,0.062 1.096,0.108 1.63,0.134 0.3,0.015 0.595,0.018 0.817,0.019 h 0.004 c 0.202,0 0.41,-0.024 0.611,-0.047 0.069,-0.008 0.138,-0.016 0.206,-0.022 0.788,-0.08 1.598,-0.259 2.551,-0.566 0.268,0.023 0.621,0.049 0.98,0.051 h 0.07 c 0.786,0 1.501,-0.062 2.186,-0.191 0.806,-0.151 1.596,-0.512 2.293,-0.829 0.277,-0.126 0.532,-0.255 0.782,-0.394 0.236,-0.131 0.461,-0.312 0.679,-0.488 0.044,-0.035 0.087,-0.069 0.13,-0.103 0.062,-0.05 0.145,-0.116 0.225,-0.188 l 0.065,-0.058 c 0.072,-0.063 0.146,-0.129 0.215,-0.197 0.923,-0.912 1.664,-2.109 2.264,-3.658 0.101,-0.26 0.2,-0.534 0.295,-0.815 0.016,-0.049 0.033,-0.098 0.05,-0.147 0.067,-0.192 0.136,-0.392 0.177,-0.592 0.141,-0.685 0.276,-1.419 0.316,-2.147 0.06,-1.121 0.024,-2.256 -0.023,-3.315 -0.049,-1.087 -0.202,-2.273 -0.479,-3.732 -0.105,-0.549 -0.285,-1.092 -0.446,-1.557 -0.06,-0.173 -0.133,-0.345 -0.203,-0.511 -0.031,-0.071 -0.061,-0.142 -0.09,-0.213 -0.049,-0.12 -0.097,-0.241 -0.145,-0.362 -0.116,-0.292 -0.235,-0.594 -0.374,-0.876 -0.214,-0.437 -0.448,-0.904 -0.709,-1.361 -0.037,-0.066 -0.074,-0.131 -0.111,-0.197 -0.188,-0.332 -0.381,-0.675 -0.612,-0.986 -0.351,-0.475 -0.673,-0.899 -1.056,-1.28 l -0.297,-0.296 c -0.274,-0.272 -0.602,-0.518 -0.918,-0.755 l -0.098,-0.073 c -0.241,-0.181 -0.461,-0.341 -0.673,-0.488 -0.868,-0.603 -1.884,-1.048 -3.018,-1.322 -0.237,-0.057 -0.551,-0.13 -0.875,-0.18 l -0.101,-0.016 c -0.428,-0.067 -0.871,-0.136 -1.309,-0.136 h -0.043 c -0.124,10e-4 -0.248,0.002 -0.373,0.004 z m 28.417,64.926 c -0.268,-0.015 -0.573,-0.032 -0.871,-0.042 -0.383,-0.014 -0.773,-0.014 -1.116,-0.015 -0.486,-10e-4 -0.985,-0.002 -1.477,-0.031 -0.673,-0.041 -1.347,-0.12 -1.999,-0.196 -0.215,-0.025 -0.43,-0.05 -0.645,-0.073 -0.472,-0.053 -0.948,-0.099 -1.408,-0.144 -0.32,-0.031 -0.639,-0.062 -0.958,-0.095 -0.273,-0.046 -0.51,-0.099 -0.725,-0.16 -0.324,-0.091 -0.639,-0.196 -0.962,-0.322 l -0.446,-0.195 -0.138,-0.06 c -0.277,-0.121 -0.554,-0.242 -0.832,-0.361 l 0.094,0.036 0.099,0.041 c -0.818,-0.359 -1.627,-0.812 -2.405,-1.345 -0.084,-0.068 -0.167,-0.138 -0.249,-0.208 -0.264,-0.226 -0.539,-0.449 -0.804,-0.665 l -0.009,-0.007 c -0.359,-0.291 -0.765,-0.621 -1.14,-0.956 -0.743,-0.665 -1.39,-1.258 -1.978,-1.814 -1.2,-1.135 -2.383,-2.393 -3.616,-3.845 -0.586,-0.691 -1.229,-1.339 -1.837,-1.944 -0.696,-0.692 -1.276,-1.263 -1.825,-1.795 l -0.009,-0.009 -0.347,-0.339 c -0.511,-0.498 -1.038,-1.013 -1.586,-1.485 -0.58,-0.499 -1.166,-1.01 -1.735,-1.506 l -0.058,-0.051 -0.242,-0.211 c -0.772,-0.673 -1.611,-1.372 -2.509,-1.928 -0.622,-0.385 -1.286,-0.715 -1.928,-1.035 l -0.12,-0.059 c -0.103,-0.052 -0.208,-0.104 -0.311,-0.156 -0.418,-0.21 -0.846,-0.417 -1.26,-0.617 l -0.048,-0.023 c -0.33,-0.159 -0.66,-0.319 -0.989,-0.481 -0.779,-0.385 -1.585,-0.752 -2.463,-1.125 -1.512,-0.684 -3.07,-1.331 -4.577,-1.956 l -0.201,-0.084 c -0.455,-0.196 -0.923,-0.395 -1.392,-0.59 -0.864,-0.386 -1.694,-0.823 -2.47,-1.298 -0.807,-0.493 -1.571,-1.052 -2.285,-1.581 -0.383,-0.307 -0.765,-0.635 -1.169,-1.002 l -0.013,-0.012 c -0.464,-0.422 -0.943,-0.859 -1.39,-1.323 -0.368,-0.384 -0.728,-0.782 -1.076,-1.167 -0.1,-0.111 -0.2,-0.221 -0.3,-0.331 -0.351,-0.386 -0.698,-0.793 -1.033,-1.211 -0.803,-1.081 -1.641,-2.25 -2.329,-3.475 -0.066,-0.118 -0.133,-0.235 -0.2,-0.353 l -0.063,-0.11 -0.007,-0.013 c -0.26,-0.456 -0.528,-0.928 -0.77,-1.405 -0.307,-0.607 -0.595,-1.225 -0.888,-1.859 -0.148,-0.358 -0.303,-0.739 -0.43,-1.12 l -0.032,-0.095 -0.011,-0.031 c -0.163,-0.487 -0.331,-0.99 -0.471,-1.491 -0.297,-1.063 -0.538,-1.951 -0.7,-2.9 -0.049,-0.541 -0.092,-1.083 -0.136,-1.636 -0.015,-0.197 -0.031,-0.394 -0.047,-0.591 l -0.002,-0.018 c -0.064,-0.81 -0.105,-1.662 -0.122,-2.606 -0.018,-0.981 -0.026,-1.869 -0.026,-2.711 0.001,-0.606 0.042,-1.254 0.129,-2.037 0.126,-0.729 0.245,-1.385 0.428,-2.034 0.115,-0.408 0.228,-0.806 0.352,-1.201 0.099,-0.312 0.215,-0.623 0.327,-0.925 l 0.042,-0.113 c 0.07,-0.166 0.14,-0.332 0.21,-0.498 l -0.053,0.136 -0.037,0.089 c 0.283,-0.672 0.645,-1.325 0.995,-1.956 l 0.067,-0.12 0.117,-0.213 c 0.456,-0.83 0.847,-1.496 1.231,-2.098 l 0.239,-0.376 c 0.377,-0.595 0.763,-1.203 1.168,-1.78 0.405,-0.578 0.829,-1.159 1.258,-1.725 1.498,-1.834 2.86,-3.238 4.286,-4.42 1.224,-0.912 2.523,-1.759 3.779,-2.579 l 0.075,-0.049 c 0.445,-0.29 0.831,-0.541 1.218,-0.788 l 0.172,-0.111 c 0.264,-0.171 0.563,-0.364 0.862,-0.522 0.358,-0.188 0.763,-0.402 1.172,-0.595 0.316,-0.149 0.627,-0.291 0.996,-0.458 0.74,-0.299 1.359,-0.533 1.948,-0.736 0.164,-0.056 0.328,-0.114 0.493,-0.171 0.622,-0.218 1.265,-0.443 1.909,-0.624 0.19,-0.054 0.379,-0.11 0.57,-0.166 l 0.014,-0.004 c 0.607,-0.178 1.235,-0.361 1.863,-0.484 0.712,-0.138 1.451,-0.265 2.261,-0.387 0.13,-0.017 0.261,-0.033 0.392,-0.05 0.663,-0.085 1.344,-0.11 2.003,-0.135 l 0.087,-0.004 c 0.194,-0.007 0.388,-0.015 0.582,-0.024 0.967,-0.046 1.843,-0.073 2.681,-0.081 0.663,-0.007 1.392,-0.01 2.363,-0.01 h 0.512 c 0.549,10e-4 0.991,0.004 1.389,0.008 0.386,0.005 0.779,0.041 1.125,0.072 0.51,0.084 0.954,0.172 1.358,0.268 0.439,0.106 0.895,0.254 1.476,0.48 0.544,0.234 0.985,0.43 1.387,0.618 0.181,0.085 0.364,0.169 0.547,0.252 0.447,0.204 0.902,0.413 1.338,0.639 0.757,0.394 1.333,0.708 1.868,1.018 0.55,0.319 1.084,0.663 1.634,1.053 0.836,0.668 1.503,1.247 2.096,1.822 0.444,0.431 0.844,0.82 1.228,1.23 0.289,0.308 0.55,0.642 0.801,0.964 l 0.009,0.011 c 0.518,0.685 0.902,1.229 1.243,1.764 0.34,0.533 0.686,1.135 1.056,1.84 0.404,0.772 0.739,1.422 1.054,2.09 0.273,0.577 0.545,1.17 0.81,1.761 0.135,0.347 0.269,0.694 0.401,1.043 0.067,0.175 0.136,0.349 0.205,0.524 l 0.009,0.023 c 0.091,0.227 0.184,0.46 0.268,0.692 0.296,0.805 0.604,1.665 0.844,2.551 0.19,0.699 0.363,1.406 0.529,2.089 l 0.127,0.518 c 0.026,0.105 0.053,0.21 0.08,0.315 0.084,0.332 0.172,0.674 0.231,1.019 0.065,0.387 0.127,0.773 0.183,1.145 0.169,1.387 0.264,2.828 0.283,4.284 0.014,1.045 0.01,2.107 0.006,3.135 l -0.001,0.04 c -0.002,0.487 -0.004,0.973 -0.004,1.459 0,0.202 0.001,0.404 0.001,0.606 l 0.001,0.151 c 0.003,0.64 0.006,1.366 -0.017,2.069 -0.032,0.952 -0.048,1.828 -0.052,2.677 -0.002,0.379 -0.002,0.76 -0.003,1.139 -0.001,0.547 -0.002,1.084 -0.006,1.62 -0.001,0.23 -0.004,0.46 -0.007,0.691 l -0.002,0.143 c -0.007,0.571 -0.016,1.22 -0.006,1.843 0.018,1.166 0.122,2.215 0.319,3.206 l 0.005,0.024 0.003,0.017 c 0.086,0.436 0.176,0.886 0.284,1.324 0.115,0.466 0.249,0.928 0.376,1.361 0.305,1.03 0.691,2.013 1.149,2.924 0.14,0.276 0.299,0.551 0.453,0.816 0.061,0.105 0.122,0.209 0.181,0.313 0.093,0.163 0.188,0.325 0.283,0.487 0.11,0.188 0.247,0.421 0.373,0.647 0.403,0.72 0.842,1.432 1.268,2.121 l 0.08,0.131 0.118,0.188 0.058,0.094 c 0.174,0.278 0.354,0.567 0.514,0.859 0.078,0.142 0.154,0.284 0.231,0.426 l 0.007,0.015 c 0.124,0.23 0.252,0.467 0.382,0.699 0.388,0.691 0.796,1.436 1.283,2.344 0.392,0.731 0.728,1.484 1.005,2.124 0.261,0.626 0.553,1.329 0.739,2.031 0.169,0.631 0.309,1.311 0.43,2.08 0.058,0.563 0.089,1.134 0.12,1.686 l 0.001,0.017 c 0.011,0.203 0.022,0.406 0.035,0.609 l 0.014,0.245 0.015,0.244 c 0.015,0.267 0.031,0.535 0.049,0.802 0.007,0.112 0.016,0.224 0.026,0.338 0.027,0.328 0.054,0.667 0.04,0.999 -0.088,0.444 -0.212,0.879 -0.381,1.332 -0.153,0.337 -0.284,0.588 -0.425,0.815 -0.165,0.265 -0.341,0.519 -0.492,0.732 -0.077,0.095 -0.154,0.189 -0.233,0.282 -0.252,0.295 -0.548,0.577 -0.932,0.887 -0.796,0.598 -1.596,1.106 -2.377,1.508 -0.577,0.297 -1.164,0.563 -1.611,0.761 -0.248,0.11 -0.496,0.22 -0.744,0.329 -0.026,0.002 -0.05,0.003 -0.075,0.004 -0.122,0.004 -0.244,0.005 -0.365,0.005 -0.474,0 -0.952,-0.027 -1.414,-0.053 z"
               fill="#92b539"
               marker-start="none"
               marker-end="none"
               id="path4" />
            <path
               d="m 207.362,517.284 h -0.004 c -0.222,-10e-4 -0.517,-0.004 -0.817,-0.019 -0.534,-0.026 -1.082,-0.071 -1.63,-0.135 -0.853,-0.098 -1.57,-0.233 -2.191,-0.412 -0.446,-0.128 -0.891,-0.322 -1.309,-0.51 l -0.015,-0.007 c -0.236,-0.106 -0.48,-0.216 -0.716,-0.332 l -0.092,-0.045 c -0.425,-0.21 -0.865,-0.426 -1.275,-0.68 -0.496,-0.308 -0.957,-0.622 -1.41,-0.961 -0.065,-0.049 -0.131,-0.097 -0.196,-0.146 -0.251,-0.186 -0.51,-0.378 -0.748,-0.583 -0.208,-0.179 -0.421,-0.373 -0.652,-0.594 -0.434,-0.415 -0.773,-0.771 -1.066,-1.118 -0.526,-0.627 -0.945,-1.205 -1.279,-1.769 -0.112,-0.188 -0.205,-0.392 -0.295,-0.59 l -0.036,-0.078 c -0.169,-0.372 -0.335,-0.776 -0.521,-1.274 -0.485,-1.294 -0.612,-2.674 -0.668,-3.732 -0.056,-1.047 -0.058,-2.104 -0.06,-3.126 -0.001,-0.519 0.047,-1.045 0.156,-1.706 0.051,-0.307 0.144,-0.634 0.292,-1.027 0.236,-0.625 0.47,-1.12 0.738,-1.559 0.215,-0.353 0.477,-0.718 0.849,-1.183 0.045,-0.056 0.089,-0.113 0.133,-0.169 0.113,-0.144 0.229,-0.293 0.354,-0.429 0.372,-0.406 0.774,-0.809 1.231,-1.232 0.52,-0.481 1.113,-0.917 1.627,-1.287 0.48,-0.346 0.942,-0.651 1.413,-0.933 0.451,-0.27 0.926,-0.491 1.386,-0.705 1.187,-0.552 2.397,-0.958 3.595,-1.208 0.697,-0.145 1.415,-0.235 2.109,-0.322 l 0.07,-0.009 c 0.464,-0.058 0.963,-0.097 1.524,-0.118 0.492,-0.018 1.03,-0.033 1.645,-0.044 0.125,-0.002 0.249,-0.004 0.373,-0.005 h 0.043 c 0.439,0 0.881,0.069 1.309,0.136 l 0.101,0.016 c 0.324,0.051 0.638,0.123 0.875,0.18 1.134,0.274 2.15,0.718 3.018,1.322 0.212,0.147 0.432,0.307 0.673,0.488 l 0.098,0.073 c 0.316,0.237 0.644,0.483 0.917,0.755 l 0.298,0.296 c 0.383,0.381 0.705,0.805 1.056,1.28 0.231,0.311 0.424,0.654 0.612,0.986 0.037,0.066 0.074,0.131 0.111,0.196 0.261,0.458 0.495,0.925 0.709,1.362 0.139,0.282 0.258,0.584 0.374,0.876 0.048,0.121 0.096,0.242 0.145,0.362 0.029,0.071 0.059,0.142 0.09,0.213 0.07,0.166 0.143,0.338 0.203,0.511 0.161,0.465 0.341,1.008 0.446,1.557 0.277,1.459 0.43,2.645 0.479,3.732 0.048,1.059 0.083,2.194 0.023,3.315 -0.04,0.728 -0.175,1.462 -0.316,2.147 -0.041,0.2 -0.11,0.399 -0.177,0.593 -0.017,0.048 -0.034,0.097 -0.05,0.146 -0.095,0.281 -0.194,0.555 -0.295,0.815 -0.6,1.549 -1.341,2.746 -2.265,3.658 -0.068,0.068 -0.142,0.134 -0.214,0.197 l -0.065,0.058 c -0.08,0.072 -0.162,0.138 -0.225,0.188 -0.043,0.033 -0.086,0.068 -0.13,0.103 -0.218,0.176 -0.443,0.357 -0.679,0.488 -0.25,0.139 -0.505,0.268 -0.782,0.394 -0.697,0.317 -1.488,0.677 -2.293,0.829 -0.685,0.129 -1.4,0.191 -2.186,0.191 h -0.07 c -0.359,-0.002 -0.712,-0.028 -0.98,-0.051 -0.953,0.306 -1.763,0.486 -2.551,0.565 -0.068,0.007 -0.137,0.015 -0.206,0.023 -0.201,0.023 -0.409,0.047 -0.611,0.047 z"
               fill="#a47144"
               marker-start="none"
               marker-end="none"
               id="path5" />
          </g>
          <g
             id="Group_3"
             fill-rule="nonzero"
             stroke-width="0.025">
            <path
               d="m 209.365,397.869 c -0.047,-0.037 -0.094,-0.073 -0.141,-0.11 0.047,0.037 0.094,0.073 0.141,0.11 z m 21.638,57.85 c 0.313,0.072 0.625,0.145 0.936,0.219 0.394,0.095 0.797,0.196 1.234,0.309 0.201,0.052 0.408,0.092 0.591,0.127 0.077,0.015 0.153,0.03 0.229,0.046 0.26,0.052 0.518,0.107 0.777,0.162 l 0.079,0.016 c 0.332,0.071 0.664,0.141 0.996,0.208 0.419,0.084 0.833,0.151 1.291,0.225 0.603,0.053 1.265,0.078 2.083,0.078 0.393,0 0.793,-0.005 1.18,-0.011 h 0.043 l 0.205,-0.003 c 1.005,-0.014 2.329,-0.046 3.656,-0.173 0.693,-0.102 1.222,-0.201 1.715,-0.322 0.441,-0.107 0.802,-0.205 1.136,-0.309 0.299,-0.091 0.6,-0.21 0.884,-0.323 1.213,-0.539 2.144,-1.047 2.927,-1.6 0.411,-0.35 0.818,-0.769 1.28,-1.318 l 0.111,-0.156 0.064,-0.091 c 0.153,-0.218 0.293,-0.462 0.441,-0.767 0.14,-0.4 0.252,-0.839 0.343,-1.344 0.046,-0.55 0.045,-1.113 0.043,-1.659 v -0.011 -0.235 -0.211 c -0.001,-0.536 -0.002,-1.06 -0.009,-1.572 -0.008,-0.605 -0.03,-1.224 -0.063,-1.839 -0.025,-0.445 -0.075,-0.873 -0.121,-1.235 -0.08,-0.417 -0.179,-0.911 -0.299,-1.405 -0.112,-0.452 -0.251,-0.883 -0.36,-1.208 -0.16,-0.477 -0.32,-0.954 -0.478,-1.432 -0.139,-0.418 -0.297,-0.833 -0.45,-1.234 l -0.017,-0.043 c -0.161,-0.372 -0.308,-0.695 -0.449,-0.987 -0.251,-0.52 -0.464,-0.954 -0.69,-1.384 l -0.071,-0.135 c -0.492,-0.936 -1.001,-1.905 -1.533,-2.84 -0.875,-1.539 -1.926,-3.092 -3.407,-5.035 -0.686,-0.828 -1.266,-1.494 -1.825,-2.097 -0.701,-0.755 -1.42,-1.495 -2.097,-2.189 -0.677,-0.693 -1.384,-1.318 -2.049,-1.899 -0.254,-0.221 -0.508,-0.441 -0.763,-0.66 l -0.009,-0.007 -0.284,-0.246 c -0.236,-0.202 -0.489,-0.394 -0.733,-0.58 l -0.08,-0.059 c -0.024,-0.018 -0.048,-0.036 -0.071,-0.054 0.018,0.014 0.036,0.028 0.054,0.042 l -0.056,-0.041 0.124,0.094 c 0.031,0.023 0.061,0.047 0.091,0.07 -1.458,-1.034 -2.599,-1.803 -3.695,-2.491 l -0.493,-0.311 -0.172,-0.109 c -0.393,-0.249 -0.778,-0.492 -1.165,-0.731 -0.631,-0.393 -1.262,-0.752 -1.849,-1.082 -0.225,-0.127 -0.448,-0.256 -0.67,-0.386 l -0.077,-0.045 c -0.323,-0.188 -0.69,-0.402 -1.057,-0.602 -0.605,-0.329 -1.21,-0.661 -1.848,-1.014 -0.305,-0.17 -0.61,-0.339 -0.914,-0.508 l -0.234,-0.13 c -0.845,-0.47 -1.72,-0.956 -2.592,-1.431 -1.177,-0.642 -2.374,-1.271 -3.558,-1.868 -1.192,-0.601 -2.418,-1.307 -3.859,-2.222 -0.333,-0.212 -0.677,-0.441 -0.981,-0.644 l -0.047,-0.032 c -0.241,-0.16 -0.482,-0.321 -0.726,-0.478 -0.365,-0.237 -0.732,-0.486 -1.087,-0.727 l -0.073,-0.048 c -0.209,-0.143 -0.418,-0.285 -0.629,-0.426 -1.382,-0.926 -2.514,-1.719 -3.562,-2.495 -0.694,-0.512 -1.372,-1.054 -1.944,-1.517 l -0.174,-0.14 -0.174,-0.14 c -0.422,-0.338 -0.901,-0.722 -1.347,-1.112 -1.076,-0.938 -2.053,-1.994 -2.962,-2.994 -0.87,-0.958 -1.682,-1.987 -2.467,-2.983 l -0.216,-0.274 c -0.644,-0.814 -1.32,-1.624 -1.978,-2.412 l -0.087,-0.104 c -0.236,-0.281 -0.471,-0.563 -0.706,-0.847 -0.848,-1.024 -1.572,-1.863 -2.277,-2.641 -0.835,-0.92 -1.711,-1.869 -2.602,-2.821 -0.385,-0.411 -0.792,-0.793 -1.142,-1.119 -0.434,-0.402 -0.949,-0.878 -1.489,-1.357 -0.441,-0.391 -0.907,-0.79 -1.318,-1.142 l -0.097,-0.083 c -0.307,-0.262 -0.63,-0.514 -0.943,-0.757 l -0.011,-0.008 -0.023,-0.018 -0.075,-0.055 -0.012,-0.008 c -0.888,-0.638 -1.806,-1.298 -2.766,-1.862 l -0.023,-0.014 -0.799,-0.469 c -0.183,-0.107 -0.383,-0.207 -0.559,-0.295 l -0.063,-0.032 c -0.07,-0.035 -0.141,-0.071 -0.21,-0.107 -0.401,-0.209 -0.822,-0.398 -1.253,-0.589 -0.325,-0.122 -0.649,-0.243 -0.973,-0.364 -0.72,-0.269 -1.513,-0.476 -2.355,-0.616 -0.784,-0.074 -1.585,-0.085 -2.333,-0.085 -0.117,0 -0.234,0.001 -0.351,0.001 h -0.172 -0.056 c -0.867,0.004 -1.696,0.013 -2.471,0.022 -0.679,0.009 -1.41,0.038 -2.302,0.094 -0.047,0.003 -0.095,0.005 -0.143,0.009 l -0.076,0.004 c -0.249,0.014 -0.506,0.029 -0.759,0.058 l -0.215,0.026 -0.734,0.086 -0.175,0.033 -1.207,0.228 c -0.322,0.061 -0.656,0.138 -0.95,0.206 l -0.07,0.016 c -0.126,0.029 -0.252,0.059 -0.378,0.086 -1.066,0.237 -1.941,0.443 -2.753,0.646 -0.345,0.086 -0.801,0.202 -1.258,0.334 -0.108,0.03 -0.216,0.061 -0.325,0.091 -0.362,0.1 -0.736,0.205 -1.098,0.333 -0.145,0.051 -0.29,0.101 -0.436,0.151 -0.306,0.104 -0.622,0.212 -0.927,0.334 l -0.416,0.165 c -0.351,0.14 -0.702,0.28 -1.053,0.419 l -0.024,0.01 c -0.418,0.177 -0.938,0.396 -1.424,0.616 -0.392,0.177 -0.784,0.353 -1.176,0.53 -0.24,0.109 -0.479,0.236 -0.71,0.359 l -0.012,0.006 c -0.119,0.064 -0.238,0.127 -0.357,0.188 -1.308,0.671 -2.58,1.465 -3.669,2.157 -1.358,0.861 -2.579,1.641 -3.781,2.459 -1.033,0.702 -2.133,1.474 -3.46,2.428 l -0.651,0.467 c -1.28,0.917 -2.603,1.867 -3.886,2.845 -1.495,1.173 -2.754,2.158 -4.044,3.148 -1.105,0.87 -1.941,1.536 -2.71,2.16 -0.955,0.776 -1.903,1.597 -2.717,2.305 -0.095,0.083 -0.191,0.165 -0.292,0.252 -0.279,0.24 -0.568,0.488 -0.837,0.748 -0.522,0.504 -0.984,0.964 -1.414,1.406 -0.664,0.682 -1.318,1.429 -2.001,2.284 -0.386,0.556 -0.795,1.152 -1.17,1.772 -0.202,0.332 -0.386,0.669 -0.557,0.985 -0.132,0.244 -0.248,0.504 -0.344,0.726 -0.248,0.625 -0.435,1.272 -0.556,1.924 -0.056,0.644 -0.049,1.301 -0.041,1.94 l 0.002,0.238 c 0.004,0.416 0.012,0.871 0.023,1.433 0.017,0.798 0.069,1.592 0.155,2.359 0.091,0.484 0.228,0.971 0.42,1.489 0.077,0.209 0.161,0.428 0.264,0.69 0.316,0.673 0.687,1.364 1.168,2.175 0.446,0.753 0.911,1.468 1.382,2.126 0.369,0.46 0.868,1.06 1.443,1.605 0.541,0.513 1.094,0.998 1.643,1.442 0.756,0.556 1.508,1.093 2.235,1.596 l 0.183,0.126 0.182,0.127 0.009,0.006 c 0.713,0.496 1.451,1.008 2.217,1.45 0.597,0.346 1.223,0.665 1.836,0.978 l 0.084,0.043 c 0.234,0.12 0.468,0.239 0.701,0.36 0.791,0.414 1.617,0.773 2.329,1.078 0.709,0.288 1.441,0.555 2.148,0.812 l 0.015,0.006 c 0.546,0.198 1.166,0.424 1.761,0.656 0.343,0.135 0.702,0.268 1.018,0.385 0.31,0.114 0.64,0.236 0.958,0.36 l 0.273,0.107 0.139,0.054 c 0.525,0.205 1.069,0.417 1.604,0.621 1.325,0.505 2.737,1.039 4.145,1.509 1.232,0.414 2.515,0.722 3.755,1.02 l 0.419,0.101 c 0.832,0.202 1.684,0.392 2.53,0.565 l 0.039,0.007 c 0.811,0.165 1.65,0.335 2.494,0.468 l 0.907,0.144 c 1.312,0.208 2.668,0.423 4.005,0.611 0.846,0.097 1.699,0.16 2.525,0.222 l 0.023,0.002 c 0.494,0.037 1.005,0.075 1.507,0.12 1.529,0.136 3.137,0.343 4.782,0.614 1.332,0.22 2.726,0.507 4.384,0.904 1.38,0.331 2.803,0.618 4.352,0.879 0.787,0.133 1.604,0.285 2.325,0.419 l 0.038,0.007 c 0.644,0.119 1.31,0.243 1.966,0.357 1.415,0.244 2.827,0.576 4.193,0.897 l 0.111,0.026 c 0.759,0.178 1.534,0.346 2.283,0.508 l 0.021,0.005 0.01,0.002 c 0.658,0.142 1.337,0.289 2.003,0.442 0.659,0.152 1.335,0.34 1.931,0.504 l 0.124,0.034 c 0.25,0.069 0.499,0.136 0.749,0.203 0.408,0.109 0.869,0.233 1.315,0.362 1.418,0.409 2.755,0.765 4.087,1.087 1.421,0.343 2.894,0.695 4.376,1.046 0.222,0.053 0.444,0.104 0.665,0.156 l 0.125,0.029 c 0.497,0.115 0.945,0.22 1.396,0.33 0.727,0.178 1.434,0.365 2.03,0.524 1.207,0.323 2.795,0.759 4.37,1.274 0.771,0.251 1.541,0.555 2.285,0.848 l 0.014,0.005 0.376,0.148 c 0.405,0.159 0.81,0.32 1.214,0.481 0.446,0.178 0.892,0.355 1.339,0.53 1.803,0.704 3.729,1.466 5.588,2.267 2.212,0.911 4.133,1.851 5.872,2.871 -0.202,-0.015 -0.405,-0.031 -0.607,-0.045 l -0.02,10e-4 c -0.004,-10e-4 -0.008,-10e-4 -0.012,-10e-4 0.002,0 0.003,0 0.005,10e-4 z m 6.721,6.025 c -0.88,-0.052 -1.75,-0.204 -2.614,-0.37 -0.697,-0.134 -1.389,-0.287 -2.075,-0.465 -0.311,-0.08 -0.636,-0.146 -0.938,-0.255 -0.36,-0.13 -0.719,-0.263 -1.076,-0.399 -0.483,-0.182 -0.963,-0.371 -1.441,-0.563 -0.376,-0.15 -0.772,-0.292 -1.135,-0.468 -0.688,-0.334 -1.371,-0.677 -2.051,-1.025 -2.405,-1.233 -4.735,-2.592 -7.055,-3.971 -0.383,-0.076 -0.765,-0.156 -1.146,-0.241 -1.41,-0.313 -2.803,-0.689 -4.184,-1.113 -0.716,-0.219 -1.44,-0.416 -2.158,-0.632 -0.662,-0.199 -1.323,-0.405 -1.99,-0.586 -1.485,-0.404 -2.973,-0.771 -4.479,-1.086 -1.375,-0.289 -2.751,-0.581 -4.12,-0.891 -0.73,-0.165 -1.459,-0.328 -2.184,-0.511 -0.646,-0.164 -1.291,-0.343 -1.931,-0.531 -0.695,-0.203 -1.392,-0.392 -2.089,-0.588 -0.699,-0.198 -1.399,-0.416 -2.107,-0.583 -1.471,-0.347 -2.945,-0.676 -4.422,-0.997 -0.714,-0.155 -1.425,-0.331 -2.137,-0.492 -0.741,-0.167 -1.483,-0.312 -2.229,-0.453 -1.406,-0.266 -2.818,-0.502 -4.227,-0.758 -0.385,-0.07 -0.773,-0.12 -1.158,-0.186 -0.465,-0.078 -0.93,-0.16 -1.394,-0.244 -0.826,-0.15 -1.648,-0.325 -2.468,-0.508 -0.828,-0.185 -1.658,-0.356 -2.491,-0.512 -0.681,-0.127 -1.364,-0.232 -2.049,-0.328 -0.622,-0.081 -1.244,-0.161 -1.867,-0.233 -0.691,-0.079 -1.384,-0.133 -2.077,-0.186 -0.712,-0.056 -1.425,-0.101 -2.135,-0.171 -0.859,-0.084 -1.716,-0.194 -2.57,-0.32 -1.494,-0.221 -2.983,-0.469 -4.473,-0.712 -1.392,-0.227 -2.783,-0.495 -4.157,-0.815 -0.73,-0.17 -1.457,-0.355 -2.185,-0.532 -0.69,-0.168 -1.372,-0.381 -2.053,-0.582 -0.65,-0.193 -1.3,-0.42 -1.938,-0.652 -0.7,-0.254 -1.402,-0.506 -2.099,-0.769 -1.344,-0.508 -2.684,-1.027 -4.032,-1.522 -0.722,-0.265 -1.439,-0.541 -2.162,-0.8 -0.683,-0.244 -1.371,-0.471 -2.053,-0.717 -0.638,-0.23 -1.263,-0.5 -1.887,-0.763 -0.805,-0.338 -1.599,-0.68 -2.374,-1.081 -1.214,-0.629 -2.443,-1.239 -3.581,-2.001 -1.216,-0.814 -2.403,-1.67 -3.594,-2.521 -1.224,-0.874 -2.4,-1.812 -3.427,-2.916 -1.065,-1.147 -1.964,-2.45 -2.765,-3.793 -0.375,-0.628 -0.746,-1.26 -1.085,-1.909 -0.4,-0.77 -0.71,-1.585 -1.008,-2.399 -0.186,-0.508 -0.328,-1.017 -0.42,-1.551 -0.091,-0.533 -0.152,-1.079 -0.199,-1.617 -0.065,-0.735 -0.088,-1.472 -0.106,-2.208 -0.021,-0.823 -0.03,-1.648 -0.014,-2.471 0.011,-0.586 0.103,-1.169 0.186,-1.748 0.07,-0.487 0.207,-0.966 0.36,-1.433 0.258,-0.788 0.62,-1.541 0.986,-2.284 0.148,-0.299 0.322,-0.584 0.488,-0.873 0.178,-0.309 0.376,-0.616 0.581,-0.909 0.216,-0.31 0.431,-0.621 0.652,-0.927 0.326,-0.449 0.669,-0.883 1.017,-1.315 0.916,-1.136 1.945,-2.182 3.004,-3.184 0.504,-0.476 1.03,-0.927 1.555,-1.381 0.555,-0.479 1.103,-0.968 1.668,-1.435 1.162,-0.959 2.331,-1.907 3.515,-2.839 0.483,-0.38 0.972,-0.753 1.461,-1.126 0.737,-0.578 1.478,-1.151 2.221,-1.722 1.162,-0.897 2.327,-1.786 3.522,-2.64 1.238,-0.884 2.47,-1.776 3.703,-2.668 2.378,-1.721 4.831,-3.328 7.355,-4.826 0.637,-0.378 1.29,-0.727 1.942,-1.079 0.319,-0.173 0.652,-0.322 0.978,-0.483 0.284,-0.14 0.567,-0.275 0.859,-0.401 1.583,-0.683 3.176,-1.33 4.785,-1.948 0.298,-0.114 0.605,-0.209 0.907,-0.313 0.306,-0.105 0.61,-0.218 0.923,-0.305 0.782,-0.218 1.563,-0.432 2.352,-0.624 0.763,-0.186 1.528,-0.358 2.294,-0.53 0.624,-0.14 1.247,-0.289 1.875,-0.408 0.44,-0.083 0.879,-0.166 1.318,-0.249 0.501,-0.095 1.022,-0.135 1.528,-0.197 0.732,-0.088 1.465,-0.133 2.201,-0.182 0.695,-0.047 1.396,-0.054 2.093,-0.067 0.78,-0.015 1.561,-0.026 2.342,-0.035 0.25,-0.004 0.5,-0.003 0.751,-0.003 0.125,0 0.25,0 0.375,0 0.987,-0.002 1.96,0.096 2.933,0.267 0.724,0.127 1.433,0.335 2.123,0.587 0.511,0.187 1.019,0.368 1.517,0.588 0.383,0.169 0.767,0.338 1.15,0.508 0.356,0.157 0.698,0.36 1.044,0.54 0.27,0.139 0.53,0.297 0.792,0.451 0.293,0.171 0.584,0.34 0.867,0.527 0.335,0.222 0.669,0.443 1.004,0.665 0.349,0.231 0.68,0.497 1.019,0.744 0.345,0.252 0.68,0.516 1.013,0.783 0.296,0.238 0.603,0.467 0.89,0.717 1.105,0.96 2.221,1.915 3.269,2.937 0.292,0.285 0.584,0.57 0.876,0.855 0.308,0.3 0.594,0.625 0.89,0.937 0.491,0.518 0.974,1.043 1.459,1.567 0.468,0.505 0.94,1.005 1.396,1.521 0.497,0.564 0.987,1.134 1.478,1.703 0.814,0.944 1.645,1.873 2.436,2.838 0.77,0.939 1.516,1.899 2.33,2.801 0.838,0.928 1.703,1.827 2.597,2.701 0.84,0.821 1.772,1.537 2.69,2.266 0.166,0.128 0.33,0.255 0.495,0.383 0.566,0.42 1.136,0.834 1.711,1.244 0.595,0.426 1.206,0.829 1.81,1.241 0.571,0.39 1.131,0.794 1.705,1.179 0.584,0.394 1.174,0.779 1.761,1.169 1.238,0.822 2.507,1.601 3.813,2.31 0.571,0.31 1.158,0.592 1.735,0.888 0.64,0.329 1.274,0.667 1.905,1.011 1.235,0.674 2.456,1.373 3.687,2.054 1.243,0.689 2.498,1.355 3.725,2.073 0.617,0.361 1.241,0.711 1.858,1.073 0.627,0.367 1.231,0.779 1.839,1.176 1.199,0.782 2.386,1.582 3.544,2.424 0.396,0.289 0.791,0.576 1.174,0.883 0.307,0.246 0.63,0.48 0.925,0.74 0.582,0.514 1.164,1.029 1.743,1.547 1.039,0.929 1.986,1.964 2.948,2.97 2.146,2.243 4.048,4.714 5.776,7.289 0.192,0.287 0.363,0.589 0.543,0.884 0.175,0.289 0.347,0.584 0.509,0.88 0.348,0.637 0.695,1.274 1.041,1.912 0.339,0.623 0.663,1.254 0.974,1.892 0.393,0.805 0.747,1.627 1.068,2.464 0.274,0.712 0.502,1.44 0.743,2.164 0.213,0.637 0.426,1.284 0.558,1.944 0.07,0.343 0.147,0.685 0.196,1.032 0.082,0.569 0.165,1.138 0.222,1.71 0.066,0.67 0.112,1.34 0.135,2.012 0.024,0.716 0.039,1.432 0.05,2.149 0.006,0.332 0.009,0.664 0.011,0.997 0.003,0.78 -0.054,1.558 -0.212,2.325 -0.088,0.425 -0.179,0.845 -0.322,1.257 -0.174,0.497 -0.406,0.988 -0.671,1.444 -0.141,0.243 -0.309,0.468 -0.471,0.696 -0.178,0.251 -0.37,0.491 -0.564,0.729 -0.1,0.121 -0.194,0.249 -0.301,0.364 -0.131,0.141 -0.261,0.281 -0.392,0.422 -0.467,0.504 -1.026,0.916 -1.578,1.321 -0.425,0.311 -0.894,0.558 -1.353,0.814 -0.311,0.173 -0.625,0.345 -0.947,0.495 -0.781,0.365 -1.569,0.723 -2.38,1.016 -0.622,0.225 -1.265,0.414 -1.916,0.537 -0.861,0.163 -1.728,0.306 -2.601,0.392 -1.431,0.141 -2.869,0.16 -4.306,0.164 -0.102,10e-4 -0.205,10e-4 -0.307,10e-4 -0.615,0 -1.23,-0.007 -1.844,-0.043 z"
               fill="#911c00"
               marker-start="none"
               marker-end="none"
               id="path6" />
            <path
               d="m 239.219,457.109 c -0.819,0 -1.48,-0.025 -2.083,-0.078 -0.459,-0.074 -0.872,-0.141 -1.29,-0.225 -0.333,-0.068 -0.665,-0.137 -0.997,-0.208 l -0.079,-0.016 c -0.258,-0.055 -0.517,-0.11 -0.776,-0.162 -0.077,-0.016 -0.154,-0.031 -0.23,-0.046 -0.183,-0.035 -0.39,-0.075 -0.591,-0.127 -0.437,-0.113 -0.84,-0.214 -1.233,-0.309 -0.312,-0.074 -0.624,-0.147 -0.937,-0.219 l 0.033,-10e-4 c 0.202,0.015 0.405,0.03 0.607,0.045 -1.739,-1.02 -3.66,-1.96 -5.872,-2.871 -1.859,-0.801 -3.784,-1.563 -5.588,-2.267 -0.447,-0.174 -0.893,-0.352 -1.339,-0.53 -0.404,-0.161 -0.809,-0.322 -1.214,-0.481 l -0.376,-0.148 -0.014,-0.005 c -0.744,-0.293 -1.514,-0.596 -2.285,-0.848 -1.575,-0.515 -3.163,-0.951 -4.37,-1.274 -0.596,-0.159 -1.303,-0.346 -2.03,-0.524 -0.451,-0.111 -0.899,-0.215 -1.396,-0.33 l -0.125,-0.029 c -0.221,-0.052 -0.443,-0.103 -0.664,-0.156 -1.483,-0.351 -2.956,-0.703 -4.377,-1.046 -1.332,-0.322 -2.669,-0.678 -4.087,-1.087 -0.446,-0.129 -0.908,-0.253 -1.314,-0.362 -0.25,-0.067 -0.5,-0.134 -0.75,-0.203 l -0.124,-0.034 c -0.596,-0.165 -1.272,-0.351 -1.93,-0.503 -0.667,-0.154 -1.346,-0.301 -2.004,-0.443 l -0.01,-0.002 -0.021,-0.005 c -0.749,-0.162 -1.524,-0.33 -2.283,-0.508 l -0.111,-0.026 c -1.366,-0.321 -2.778,-0.653 -4.193,-0.897 -0.656,-0.114 -1.322,-0.238 -1.966,-0.357 l -0.038,-0.007 c -0.721,-0.134 -1.538,-0.286 -2.326,-0.419 -1.548,-0.261 -2.971,-0.548 -4.351,-0.879 -1.659,-0.397 -3.052,-0.685 -4.384,-0.904 -1.644,-0.271 -3.253,-0.478 -4.782,-0.614 -0.502,-0.045 -1.013,-0.083 -1.507,-0.12 l -0.023,-0.002 c -0.826,-0.062 -1.679,-0.125 -2.525,-0.222 -1.337,-0.188 -2.694,-0.403 -4.005,-0.611 l -0.907,-0.144 c -0.844,-0.133 -1.683,-0.303 -2.494,-0.468 l -0.039,-0.008 c -0.846,-0.172 -1.698,-0.362 -2.53,-0.564 l -0.419,-0.1 c -1.24,-0.299 -2.523,-0.607 -3.755,-1.02 -1.409,-0.471 -2.82,-1.004 -4.145,-1.51 -0.535,-0.203 -1.079,-0.416 -1.604,-0.621 l -0.139,-0.054 -0.273,-0.107 c -0.318,-0.124 -0.648,-0.246 -0.958,-0.36 -0.316,-0.117 -0.675,-0.25 -1.018,-0.385 -0.595,-0.232 -1.214,-0.457 -1.761,-0.656 l -0.015,-0.006 c -0.708,-0.257 -1.439,-0.524 -2.149,-0.811 -0.711,-0.306 -1.537,-0.666 -2.329,-1.079 -0.232,-0.121 -0.466,-0.241 -0.699,-0.36 l -0.085,-0.043 c -0.613,-0.313 -1.239,-0.632 -1.836,-0.978 -0.766,-0.443 -1.504,-0.955 -2.217,-1.45 l -0.009,-0.006 -0.183,-0.127 -0.182,-0.126 c -0.727,-0.503 -1.479,-1.04 -2.235,-1.596 -0.55,-0.444 -1.102,-0.929 -1.643,-1.442 -0.575,-0.545 -1.073,-1.144 -1.443,-1.606 -0.471,-0.657 -0.936,-1.372 -1.382,-2.125 -0.481,-0.811 -0.852,-1.502 -1.168,-2.175 -0.103,-0.262 -0.187,-0.482 -0.264,-0.69 -0.192,-0.518 -0.329,-1.005 -0.42,-1.489 -0.086,-0.768 -0.138,-1.561 -0.155,-2.359 -0.012,-0.562 -0.019,-1.017 -0.023,-1.433 l -0.002,-0.238 c -0.007,-0.639 -0.015,-1.296 0.041,-1.94 0.121,-0.652 0.308,-1.3 0.556,-1.924 0.096,-0.222 0.212,-0.482 0.344,-0.726 0.171,-0.316 0.355,-0.653 0.557,-0.986 0.375,-0.619 0.784,-1.215 1.17,-1.772 0.683,-0.854 1.337,-1.601 2.001,-2.283 0.43,-0.442 0.892,-0.902 1.414,-1.406 0.269,-0.26 0.558,-0.508 0.837,-0.748 0.101,-0.087 0.197,-0.169 0.292,-0.252 0.814,-0.708 1.762,-1.529 2.718,-2.305 0.768,-0.624 1.604,-1.29 2.709,-2.16 1.289,-0.99 2.549,-1.975 4.044,-3.148 1.283,-0.978 2.606,-1.927 3.886,-2.845 l 0.651,-0.468 c 1.328,-0.954 2.427,-1.725 3.46,-2.427 1.202,-0.818 2.423,-1.598 3.781,-2.46 1.089,-0.691 2.361,-1.485 3.669,-2.156 0.119,-0.061 0.238,-0.125 0.357,-0.188 l 0.012,-0.006 c 0.231,-0.123 0.47,-0.25 0.71,-0.359 0.392,-0.177 0.784,-0.353 1.176,-0.53 0.486,-0.22 1.006,-0.439 1.424,-0.616 l 0.024,-0.01 c 0.351,-0.14 0.702,-0.279 1.053,-0.419 l 0.416,-0.165 c 0.305,-0.122 0.621,-0.23 0.927,-0.335 0.146,-0.049 0.291,-0.099 0.436,-0.15 0.361,-0.128 0.736,-0.232 1.098,-0.334 0.109,-0.03 0.217,-0.06 0.325,-0.091 0.457,-0.131 0.913,-0.247 1.258,-0.333 0.812,-0.203 1.687,-0.409 2.753,-0.646 0.126,-0.028 0.252,-0.057 0.378,-0.086 l 0.07,-0.016 c 0.294,-0.068 0.628,-0.145 0.95,-0.206 l 1.206,-0.228 0.176,-0.033 0.734,-0.086 0.215,-0.026 c 0.252,-0.029 0.51,-0.044 0.759,-0.058 l 0.077,-0.005 c 0.047,-0.003 0.095,-0.005 0.142,-0.008 0.892,-0.055 1.623,-0.085 2.302,-0.094 0.775,-0.009 1.604,-0.018 2.471,-0.022 h 0.056 0.172 c 0.117,0 0.234,-0.001 0.351,-0.001 0.748,0 1.549,0.01 2.333,0.085 0.842,0.14 1.635,0.347 2.355,0.616 0.324,0.121 0.648,0.242 0.973,0.363 0.431,0.192 0.852,0.381 1.253,0.59 0.069,0.036 0.14,0.072 0.21,0.107 l 0.063,0.032 c 0.176,0.088 0.376,0.187 0.559,0.295 l 0.799,0.469 0.023,0.014 c 0.96,0.564 1.878,1.224 2.766,1.862 l 0.012,0.008 0.075,0.055 0.023,0.018 0.011,0.008 c 0.313,0.243 0.636,0.495 0.943,0.757 l 0.097,0.083 c 0.411,0.352 0.877,0.751 1.318,1.142 0.54,0.479 1.055,0.955 1.489,1.357 0.35,0.326 0.757,0.708 1.142,1.119 0.891,0.952 1.767,1.901 2.602,2.821 0.706,0.778 1.429,1.617 2.277,2.641 0.235,0.283 0.47,0.565 0.706,0.847 l 0.087,0.104 c 0.658,0.788 1.334,1.598 1.978,2.412 l 0.216,0.274 c 0.785,0.996 1.597,2.025 2.467,2.983 0.909,1 1.886,2.056 2.962,2.994 0.446,0.39 0.925,0.774 1.347,1.112 l 0.174,0.14 0.174,0.14 c 0.572,0.463 1.25,1.005 1.944,1.517 1.048,0.776 2.18,1.569 3.562,2.495 0.211,0.141 0.42,0.283 0.63,0.425 l 0.072,0.049 c 0.355,0.241 0.722,0.49 1.087,0.727 0.244,0.157 0.485,0.318 0.726,0.478 l 0.047,0.032 c 0.303,0.202 0.647,0.432 0.981,0.644 1.441,0.915 2.667,1.621 3.859,2.222 1.184,0.597 2.381,1.226 3.558,1.867 0.872,0.476 1.747,0.962 2.593,1.432 l 0.233,0.13 c 0.304,0.169 0.609,0.338 0.914,0.507 0.638,0.353 1.243,0.685 1.848,1.015 0.367,0.2 0.734,0.414 1.057,0.602 l 0.077,0.045 c 0.222,0.13 0.445,0.259 0.67,0.386 0.587,0.33 1.218,0.69 1.849,1.082 0.387,0.239 0.772,0.482 1.165,0.731 l 0.172,0.109 0.493,0.311 c 1.107,0.695 2.26,1.473 3.739,2.522 l -0.259,-0.195 0.153,0.112 c 0.244,0.185 0.497,0.378 0.732,0.581 l 0.285,0.245 0.008,0.007 c 0.255,0.219 0.51,0.439 0.763,0.66 0.666,0.581 1.373,1.207 2.05,1.899 0.677,0.694 1.396,1.434 2.097,2.189 0.559,0.603 1.139,1.269 1.825,2.097 1.481,1.943 2.532,3.496 3.407,5.035 0.532,0.935 1.041,1.904 1.533,2.84 l 0.071,0.135 c 0.226,0.43 0.44,0.864 0.69,1.384 0.141,0.292 0.288,0.615 0.449,0.987 l 0.017,0.043 c 0.153,0.401 0.311,0.815 0.45,1.234 0.158,0.478 0.318,0.955 0.478,1.432 0.109,0.325 0.248,0.756 0.36,1.208 0.121,0.494 0.219,0.988 0.299,1.405 0.046,0.361 0.096,0.79 0.121,1.235 0.033,0.615 0.055,1.234 0.063,1.839 0.007,0.512 0.008,1.036 0.008,1.572 l 0.001,0.211 v 0.235 0.011 c 0.002,0.545 0.003,1.109 -0.044,1.659 -0.09,0.505 -0.202,0.945 -0.342,1.344 -0.148,0.305 -0.288,0.549 -0.441,0.766 l -0.065,0.091 -0.11,0.157 c -0.462,0.55 -0.869,0.968 -1.28,1.318 -0.784,0.553 -1.714,1.061 -2.927,1.6 -0.284,0.113 -0.585,0.232 -0.884,0.324 -0.334,0.103 -0.695,0.202 -1.136,0.309 -0.492,0.12 -1.021,0.219 -1.715,0.321 -1.327,0.127 -2.651,0.159 -3.657,0.173 l -0.204,0.003 h -0.043 c -0.387,0.006 -0.787,0.011 -1.18,0.011 z"
               fill="#a11f00"
               marker-start="none"
               marker-end="none"
               id="path7" />
            <path
               d="m 150.726,415.604 c -0.164,0.628 -0.552,1.187 -1.009,1.637 -0.205,0.203 -0.436,0.391 -0.684,0.55 0.746,-0.149 1.483,-0.344 2.191,-0.617 0.31,-0.142 0.61,-0.301 0.892,-0.491 0.032,-0.028 0.063,-0.057 0.093,-0.086 -0.048,-0.198 -0.112,-0.392 -0.184,-0.582 -0.151,-0.316 -0.33,-0.618 -0.532,-0.905 -0.199,-0.231 -0.416,-0.446 -0.644,-0.649 0.018,0.38 -0.022,0.76 -0.123,1.143 z m -4.754,2.585 c -0.451,-0.182 -0.86,-0.481 -1.188,-0.831 -0.197,-0.211 -0.37,-0.449 -0.532,-0.687 -0.179,-0.264 -0.286,-0.591 -0.408,-0.88 -0.136,-0.324 -0.245,-0.657 -0.33,-0.998 -0.042,-0.17 -0.088,-0.339 -0.116,-0.512 -0.032,-0.191 -0.063,-0.387 -0.065,-0.582 -0.003,-0.216 0.046,-0.438 0.083,-0.65 0.032,-0.184 0.13,-0.395 0.206,-0.559 -0.18,0.014 -0.361,0.03 -0.541,0.049 -0.121,0.062 -0.239,0.13 -0.353,0.204 -0.076,0.068 -0.149,0.14 -0.219,0.214 -10e-4,0.003 -0.003,0.005 -0.004,0.007 -0.011,0.04 -0.021,0.079 -0.029,0.119 -0.006,0.15 0,0.299 0.014,0.451 0.133,0.882 0.316,1.758 0.63,2.594 0.173,0.368 0.378,0.721 0.612,1.054 0.193,0.226 0.403,0.436 0.629,0.63 0.156,0.106 0.316,0.202 0.483,0.287 0.119,0.041 0.24,0.076 0.362,0.106 0.254,0.011 0.51,0.001 0.766,-0.016 z m -1.354,5.827 c -0.512,-0.003 -1.024,-0.075 -1.527,-0.16 -0.883,-0.149 -1.707,-0.479 -2.525,-0.829 -0.705,-0.301 -1.363,-0.699 -1.982,-1.148 -0.718,-0.52 -1.409,-1.08 -2.001,-1.741 -0.586,-0.654 -1.117,-1.378 -1.513,-2.163 -0.41,-0.818 -0.68,-1.677 -0.906,-2.559 -0.231,-0.902 -0.356,-1.838 -0.466,-2.762 -0.06,-0.509 0.016,-1.006 0.087,-1.511 0.055,-0.385 0.148,-0.756 0.292,-1.118 0.18,-0.454 0.374,-0.897 0.63,-1.313 0.266,-0.433 0.59,-0.84 0.938,-1.21 0.336,-0.356 0.731,-0.647 1.118,-0.944 0.304,-0.234 0.633,-0.432 0.974,-0.609 0.447,-0.231 0.919,-0.42 1.388,-0.598 0.369,-0.141 0.746,-0.256 1.129,-0.35 0.897,-0.224 1.827,-0.344 2.744,-0.433 0.799,-0.077 1.599,-0.074 2.398,0.004 0.916,0.089 1.83,0.236 2.713,0.498 0.87,0.259 1.718,0.618 2.543,0.993 0.707,0.322 1.385,0.702 2.047,1.106 0.775,0.475 1.506,1.02 2.197,1.61 0.678,0.58 1.254,1.269 1.756,2.006 0.206,0.303 0.382,0.628 0.539,0.96 0.231,0.491 0.439,0.999 0.555,1.531 0.111,0.509 0.168,1.036 0.188,1.557 0.02,0.56 -0.055,1.104 -0.132,1.658 -0.049,0.361 -0.15,0.71 -0.285,1.047 -0.121,0.3 -0.244,0.604 -0.399,0.889 -0.165,0.306 -0.398,0.577 -0.613,0.846 -0.213,0.267 -0.475,0.494 -0.741,0.706 -0.419,0.333 -0.834,0.644 -1.301,0.902 -0.314,0.173 -0.641,0.324 -0.972,0.463 -0.438,0.185 -0.873,0.362 -1.323,0.513 -0.475,0.285 -0.978,0.53 -1.477,0.756 -0.776,0.352 -1.565,0.655 -2.384,0.889 -0.845,0.241 -1.709,0.371 -2.582,0.46 -0.351,0.036 -0.703,0.055 -1.055,0.055 -0.017,0 -0.035,0 -0.052,-10e-4 z"
               fill="#e1b9b2"
               marker-start="none"
               marker-end="none"
               id="path8" />
            <path
               d="m 147.748,419.415 c -0.168,0.023 -0.336,0.044 -0.503,0.064 -0.402,0.049 -0.805,0.063 -1.21,0.046 -0.187,-0.008 -0.375,-0.024 -0.563,-0.046 -0.147,0.068 -0.298,0.129 -0.447,0.187 -0.381,0.149 -0.803,0.209 -1.211,0.18 -0.826,-0.059 -1.654,-0.379 -2.325,-0.86 -0.344,-0.245 -0.668,-0.519 -0.973,-0.812 -0.332,-0.319 -0.612,-0.697 -0.88,-1.069 -0.209,-0.29 -0.397,-0.596 -0.558,-0.915 -0.214,-0.427 -0.407,-0.898 -0.531,-1.362 -0.144,-0.538 -0.13,-1.127 0.047,-1.655 0.111,-0.33 0.263,-0.651 0.46,-0.941 -0.207,-0.475 -0.398,-0.958 -0.578,-1.441 0,-10e-4 0.001,-0.002 0.002,-0.002 0.275,0.331 0.561,0.649 0.851,0.966 0.02,0.022 0.04,0.044 0.06,0.065 0.036,-0.037 0.073,-0.073 0.111,-0.109 0.042,-0.038 0.084,-0.075 0.126,-0.111 0.075,-0.097 0.153,-0.194 0.233,-0.29 0.101,-0.122 0.219,-0.231 0.344,-0.33 0.248,-0.197 0.488,-0.391 0.761,-0.55 0.14,-0.082 0.29,-0.149 0.439,-0.213 0.324,-0.137 0.642,-0.275 0.976,-0.384 0.846,-0.279 1.733,-0.412 2.618,-0.485 0.095,-0.008 0.19,-0.014 0.285,-0.019 0.222,-0.104 0.45,-0.195 0.681,-0.289 0.719,-0.291 1.472,-0.468 2.231,-0.609 0.499,-0.093 1.008,-0.182 1.516,-0.127 0.331,0.035 0.67,0.075 0.993,0.164 0.343,0.093 0.673,0.249 0.99,0.408 0.159,0.08 0.307,0.18 0.451,0.282 0.266,0.189 0.526,0.388 0.767,0.608 0.384,0.353 0.708,0.792 0.995,1.223 0.191,0.289 0.343,0.596 0.498,0.904 0.147,0.29 0.284,0.591 0.37,0.905 0.023,0.083 0.036,0.166 0.048,0.251 0.037,0.256 0.09,0.504 0.085,0.758 0.132,0.255 0.239,0.524 0.348,0.789 0.146,0.343 0.289,0.687 0.412,1.04 0.277,0.787 0.051,1.652 -0.317,2.362 -0.087,0.167 -0.391,0.525 -0.415,0.55 -0.05,0.054 -0.102,0.103 -0.158,0.15 -0.235,0.202 -0.483,0.395 -0.754,0.546 -0.275,0.153 -0.574,0.262 -0.866,0.376 -0.179,0.07 -0.365,0.115 -0.553,0.153 -0.537,0.109 -1.08,0.158 -1.622,0.158 -1.093,0 -2.184,-0.2 -3.234,-0.516 z"
               fill="#e1b9b2"
               marker-start="none"
               marker-end="none"
               id="path9" />
          </g>
          <g
             id="Group_4"
             fill-rule="nonzero"
             stroke-width="0.025">
            <path
               d="m 111.02,434.019 -0.304,-0.096 c -0.849,-0.269 -1.834,-0.579 -2.785,-0.86 -0.444,-0.129 -0.901,-0.256 -1.394,-0.387 -0.325,-0.087 -0.648,-0.16 -0.976,-0.234 -0.211,-0.033 -0.398,-0.058 -0.576,-0.075 l -0.007,0.031 -0.006,0.023 c -0.005,0.039 -0.01,0.078 -0.013,0.118 0.078,0.219 0.137,0.399 0.185,0.566 0.097,0.338 0.1,0.698 0.103,1.016 0.002,0.227 -0.059,0.456 -0.12,0.678 l -0.008,0.031 c -0.016,0.057 -0.031,0.114 -0.045,0.171 l -0.024,0.063 -0.023,0.062 c -0.119,0.248 -0.241,0.493 -0.361,0.725 -0.044,0.081 -0.089,0.162 -0.133,0.244 l -0.046,0.084 -0.008,0.015 c -0.069,0.125 -0.137,0.249 -0.206,0.375 -0.088,0.192 -0.173,0.383 -0.26,0.576 l -0.005,0.012 c -0.126,0.283 -0.257,0.575 -0.395,0.857 -0.266,0.542 -0.548,1.087 -0.821,1.616 l -0.026,0.05 c -0.091,0.175 -0.181,0.349 -0.271,0.524 -0.424,0.864 -0.742,1.536 -1.034,2.181 -0.264,0.583 -0.496,1.181 -0.72,1.758 l -0.006,0.012 c -0.128,0.331 -0.262,0.674 -0.399,1.009 -0.195,0.476 -0.415,0.934 -0.624,1.358 l -0.041,0.085 -0.016,0.032 c -0.261,0.531 -0.532,1.081 -0.828,1.602 -0.149,0.265 -0.3,0.53 -0.452,0.794 -0.294,0.513 -0.627,1.097 -0.938,1.676 -0.093,0.176 -0.188,0.35 -0.284,0.525 l -0.036,0.064 c -0.129,0.235 -0.276,0.503 -0.411,0.761 -0.362,0.748 -0.716,1.527 -1.08,2.383 -0.249,0.581 -0.517,1.165 -0.778,1.729 l -0.021,0.047 c -0.14,0.303 -0.28,0.606 -0.417,0.91 -0.252,0.557 -0.476,1.136 -0.693,1.697 -0.143,0.37 -0.271,0.701 -0.406,1.031 -0.132,0.322 -0.264,0.642 -0.395,0.965 -0.229,0.56 -0.458,1.119 -0.689,1.678 -0.174,0.423 -0.346,0.847 -0.518,1.271 l -0.057,0.139 c -0.187,0.462 -0.38,0.94 -0.575,1.406 -0.409,0.982 -0.754,1.99 -1.047,2.86 -0.134,0.405 -0.272,0.809 -0.409,1.214 l -0.004,0.011 c -0.474,1.403 -0.965,2.853 -1.406,4.3 -0.137,0.447 -0.268,0.895 -0.401,1.342 l -0.116,0.394 c -0.073,0.248 -0.154,0.498 -0.232,0.741 l -0.007,0.021 c -0.072,0.222 -0.161,0.498 -0.24,0.763 -0.171,0.577 -0.324,1.1 -0.458,1.648 -0.122,0.504 -0.232,1.005 -0.332,1.473 -0.132,0.722 -0.249,1.458 -0.363,2.171 l -0.002,0.01 -0.052,0.328 -0.075,0.461 c -0.134,0.823 -0.272,1.675 -0.363,2.522 -0.099,0.905 -0.199,1.878 -0.26,2.864 -0.072,1.136 -0.137,2.077 -0.205,2.961 -0.064,0.809 -0.224,1.606 -0.37,2.29 -0.12,0.563 -0.296,1.129 -0.539,1.729 -0.1,0.248 -0.224,0.488 -0.344,0.721 -0.037,0.07 -0.074,0.141 -0.111,0.213 -0.201,0.398 -0.527,0.73 -0.788,0.974 -0.208,0.193 -0.484,0.366 -0.823,0.513 -0.209,0.092 -0.508,0.19 -0.799,0.262 -0.109,0.028 -0.221,0.045 -0.335,0.054 -0.474,0.037 -0.958,0.058 -1.424,0.078 l -0.03,0.002 c -0.184,0.008 -0.37,0.016 -0.555,0.025 -0.339,0.038 -0.696,0.106 -1.158,0.219 -0.319,0.078 -0.633,0.163 -0.932,0.253 -0.076,0.034 -0.148,0.071 -0.221,0.111 l -0.019,0.016 -0.021,0.017 c -0.018,0.024 -0.035,0.049 -0.052,0.075 -0.131,0.334 -0.242,0.69 -0.341,1.004 l -0.052,0.165 c -0.144,0.456 -0.261,0.866 -0.356,1.257 -0.046,0.306 -0.069,0.58 -0.071,0.84 0.022,0.163 0.054,0.326 0.093,0.484 0.081,0.188 0.18,0.383 0.294,0.578 0.3,0.394 0.628,0.778 0.918,1.118 0.36,0.426 0.747,0.878 1.152,1.309 0.149,0.158 0.298,0.318 0.446,0.477 l 0.011,0.012 c 0.607,0.648 1.232,1.317 1.881,1.943 1.062,0.898 2.186,1.745 3.273,2.564 l 0.149,0.113 c 0.334,0.251 0.666,0.502 0.998,0.756 0.723,0.553 1.534,1.12 2.478,1.734 0.268,0.176 0.535,0.354 0.801,0.533 0.545,0.363 1.108,0.738 1.684,1.085 0.233,0.139 0.465,0.277 0.698,0.415 0.573,0.34 1.222,0.724 1.83,1.11 0.261,0.164 0.521,0.331 0.78,0.498 0.582,0.375 1.185,0.763 1.799,1.122 1.681,0.977 3.483,2.018 5.281,3.008 0.359,0.198 0.729,0.386 1.087,0.568 0.163,0.082 0.325,0.166 0.487,0.25 0.575,0.297 1.148,0.594 1.723,0.89 l 0.323,0.161 c 0.944,0.471 1.886,0.942 2.827,1.416 0.085,0.041 0.171,0.081 0.256,0.123 l 0.084,0.04 c 0.272,0.132 0.581,0.281 0.88,0.412 l 0.377,0.165 c 0.29,0.124 0.648,0.28 0.988,0.435 0.665,0.301 1.328,0.605 1.991,0.91 l 0.016,0.007 0.827,0.379 c 0.844,0.386 1.759,0.788 2.797,1.229 0.891,0.379 1.762,0.732 2.586,1.046 0.794,0.304 1.596,0.595 2.389,0.867 0.165,0.057 0.33,0.113 0.495,0.168 0.974,0.327 1.947,0.652 2.92,0.978 1.819,0.608 3.78,1.256 5.779,1.876 1.242,0.384 2.493,0.67 3.99,0.981 l 0.06,0.01 c 0.392,0.073 0.798,0.148 1.2,0.202 0.48,0.062 1.007,0.121 1.658,0.185 0.338,0.032 0.674,0.065 1.011,0.1 l 0.076,0.007 c 0.617,0.062 1.256,0.125 1.885,0.182 l 0.268,0.024 c 1.801,0.161 3.663,0.33 5.507,0.238 0.095,-0.005 0.189,-0.009 0.284,-0.015 0.557,-0.055 1.205,-0.127 1.832,-0.3 0.169,-0.066 0.39,-0.156 0.595,-0.284 0.063,-0.039 0.124,-0.078 0.187,-0.118 0.08,-0.058 0.151,-0.113 0.215,-0.167 0.028,-0.043 0.057,-0.087 0.084,-0.132 0.039,-0.093 0.07,-0.176 0.095,-0.253 0.078,-0.234 0.147,-0.473 0.223,-0.738 0.099,-0.354 0.185,-0.68 0.26,-0.996 0.024,-0.173 0.053,-0.399 0.061,-0.627 -0.031,-0.207 -0.067,-0.397 -0.113,-0.578 -0.127,-0.309 -0.275,-0.618 -0.454,-0.947 -0.089,-0.162 -0.184,-0.325 -0.278,-0.483 l -0.012,-0.021 c -0.13,-0.219 -0.278,-0.469 -0.402,-0.716 -0.09,-0.177 -0.182,-0.369 -0.249,-0.565 -0.027,-0.077 -0.054,-0.153 -0.082,-0.233 -0.071,-0.203 -0.144,-0.412 -0.203,-0.621 -0.11,-0.396 -0.134,-0.757 -0.153,-1.152 -0.027,-0.591 0.076,-1.174 0.299,-1.684 0.182,-0.416 0.388,-0.819 0.547,-1.122 0.256,-0.49 0.539,-0.973 0.812,-1.439 0.179,-0.306 0.403,-0.686 0.606,-1.054 0.409,-0.741 0.853,-1.529 1.357,-2.407 0.199,-0.345 0.393,-0.692 0.588,-1.038 l 0.01,-0.016 c 0.276,-0.491 0.562,-0.998 0.855,-1.497 0.422,-0.721 0.858,-1.508 1.331,-2.406 0.899,-1.87 1.661,-3.564 2.333,-5.18 0.118,-0.284 0.234,-0.57 0.35,-0.858 0.243,-0.6 0.493,-1.219 0.766,-1.816 0.43,-0.944 0.948,-2.058 1.524,-3.167 l 0.332,-0.641 0.21,-0.405 c 0.22,-0.422 0.439,-0.844 0.658,-1.266 0.161,-0.313 0.326,-0.624 0.49,-0.937 l 0.046,-0.085 0.012,-0.023 c 0.167,-0.314 0.332,-0.627 0.496,-0.942 0.407,-0.85 0.79,-1.734 1.145,-2.562 0.284,-0.667 0.526,-1.364 0.759,-2.04 l 0.006,-0.016 c 0.072,-0.207 0.143,-0.414 0.215,-0.62 l 0.111,-0.314 c 0.59,-1.671 1.257,-3.565 1.888,-5.387 0.61,-1.769 1.216,-3.574 1.802,-5.318 l 0.035,-0.104 0.112,-0.332 c 0.157,-0.471 0.313,-0.943 0.469,-1.416 0.454,-1.372 0.923,-2.792 1.442,-4.173 0.507,-1.347 1.075,-2.682 1.624,-3.974 0.202,-0.473 0.404,-0.947 0.603,-1.421 0.356,-0.854 0.733,-1.769 1.184,-2.882 0.421,-1.037 0.934,-2.049 1.383,-2.917 0.143,-0.279 0.285,-0.559 0.429,-0.838 l 0.085,-0.168 0.097,-0.19 c 0.115,-0.224 0.229,-0.449 0.345,-0.673 l 0.068,-0.137 0.012,-0.026 c 0.084,-0.173 0.171,-0.35 0.253,-0.528 l 0.039,-0.088 c 0.065,-0.141 0.129,-0.282 0.191,-0.424 0.118,-0.282 0.217,-0.577 0.301,-0.903 -1.325,-0.581 -2.668,-1.114 -3.807,-1.558 -0.476,-0.186 -0.967,-0.36 -1.442,-0.529 l -0.018,-0.007 -0.023,-0.008 c -0.367,-0.131 -0.746,-0.266 -1.117,-0.406 -0.471,-0.177 -0.942,-0.356 -1.414,-0.536 -0.441,-0.168 -0.881,-0.335 -1.321,-0.501 -0.974,-0.368 -1.879,-0.734 -2.769,-1.121 -0.737,-0.319 -1.533,-0.645 -2.582,-1.055 -0.842,-0.33 -1.707,-0.658 -2.468,-0.948 l -0.017,-0.006 c -1.063,-0.405 -2.162,-0.822 -3.235,-1.252 -0.317,-0.126 -0.633,-0.25 -0.951,-0.375 l -0.019,-0.008 c -0.566,-0.222 -1.152,-0.453 -1.725,-0.691 -0.433,-0.181 -0.873,-0.37 -1.298,-0.554 l -0.055,-0.023 -0.078,-0.034 c -0.403,-0.174 -0.819,-0.353 -1.23,-0.525 -0.162,-0.067 -0.324,-0.135 -0.486,-0.202 l -0.239,-0.099 c -0.673,-0.278 -1.369,-0.566 -2.048,-0.867 -0.795,-0.35 -1.596,-0.721 -2.372,-1.08 l -0.016,-0.008 -0.5,-0.232 c -0.939,-0.434 -1.897,-0.836 -2.712,-1.174 l -0.463,-0.191 c -0.695,-0.286 -1.485,-0.611 -2.224,-0.952 -0.483,-0.222 -0.969,-0.454 -1.439,-0.678 -0.452,-0.215 -0.964,-0.459 -1.459,-0.687 -0.893,-0.41 -1.809,-0.793 -2.586,-1.114 -1.015,-0.417 -2.006,-0.851 -2.946,-1.293 -0.342,-0.16 -0.682,-0.322 -1.024,-0.485 l -0.023,-0.011 c -0.475,-0.226 -1.015,-0.483 -1.549,-0.731 -0.392,-0.18 -0.784,-0.36 -1.176,-0.54 l -0.079,-0.036 c -0.508,-0.234 -1.016,-0.467 -1.522,-0.703 -0.159,-0.073 -0.318,-0.15 -0.477,-0.227 l -0.042,-0.021 c -0.205,-0.099 -0.438,-0.212 -0.668,-0.316 l -0.052,-0.023 -0.037,-0.017 c -0.454,-0.202 -0.923,-0.412 -1.389,-0.607 -0.44,-0.183 -0.89,-0.361 -1.324,-0.534 l -0.056,-0.022 c -0.438,-0.174 -0.89,-0.354 -1.331,-0.538 -0.895,-0.374 -1.865,-0.775 -2.963,-1.223 -0.698,-0.284 -1.456,-0.565 -2.317,-0.861 -0.935,-0.321 -1.893,-0.625 -2.819,-0.919 z m 14.079,102.362 c -0.967,-0.332 -1.933,-0.666 -2.899,-1.003 -1.948,-0.68 -3.904,-1.339 -5.828,-2.086 -0.921,-0.357 -1.834,-0.738 -2.752,-1.107 -0.874,-0.352 -1.74,-0.727 -2.601,-1.112 -0.961,-0.432 -1.917,-0.87 -2.877,-1.302 -0.476,-0.215 -0.956,-0.423 -1.433,-0.633 -0.454,-0.199 -0.899,-0.422 -1.347,-0.635 -1.01,-0.482 -1.999,-1.015 -2.999,-1.518 -0.896,-0.451 -1.789,-0.908 -2.682,-1.364 -0.931,-0.475 -1.862,-0.949 -2.783,-1.443 -0.827,-0.445 -1.645,-0.907 -2.46,-1.37 -0.898,-0.51 -1.799,-1.016 -2.678,-1.557 -0.842,-0.518 -1.666,-1.062 -2.513,-1.571 -0.846,-0.508 -1.712,-0.988 -2.544,-1.521 -0.826,-0.528 -1.656,-1.052 -2.468,-1.602 -0.469,-0.318 -0.934,-0.64 -1.395,-0.969 -0.379,-0.268 -0.745,-0.554 -1.121,-0.828 -0.792,-0.576 -1.586,-1.147 -2.37,-1.734 -0.928,-0.694 -1.854,-1.399 -2.683,-2.213 -0.706,-0.691 -1.389,-1.406 -2.078,-2.113 -0.636,-0.652 -1.263,-1.32 -1.867,-2.001 -0.423,-0.479 -0.778,-1.016 -1.086,-1.575 -0.297,-0.536 -0.478,-1.133 -0.604,-1.73 -0.041,-0.195 -0.058,-0.391 -0.073,-0.59 -0.032,-0.445 -0.06,-0.853 -0.027,-1.294 0.053,-0.684 0.205,-1.365 0.375,-2.029 0.118,-0.456 0.258,-0.908 0.395,-1.359 0.068,-0.222 0.135,-0.444 0.207,-0.664 0.147,-0.461 0.375,-0.903 0.637,-1.308 0.06,-0.094 0.133,-0.179 0.204,-0.264 0.203,-0.245 0.417,-0.485 0.654,-0.697 0.203,-0.18 0.454,-0.31 0.677,-0.456 0.224,-0.147 0.452,-0.286 0.701,-0.387 0.625,-0.254 1.294,-0.416 1.952,-0.565 0.442,-0.099 0.883,-0.198 1.334,-0.257 0.514,-0.065 1.035,-0.099 1.554,-0.132 0.043,-0.003 0.086,-0.008 0.129,-0.013 0.075,-0.176 0.147,-0.353 0.217,-0.532 0.127,-0.328 0.212,-0.672 0.292,-1.015 0.283,-1.789 0.329,-3.609 0.542,-5.406 0.114,-0.96 0.211,-1.921 0.369,-2.875 0.16,-0.965 0.314,-1.931 0.485,-2.893 0.204,-1.159 0.435,-2.316 0.709,-3.46 0.221,-0.923 0.494,-1.832 0.778,-2.737 0.294,-0.942 0.552,-1.894 0.842,-2.837 0.288,-0.933 0.594,-1.86 0.908,-2.785 0.33,-0.971 0.668,-1.94 1.006,-2.909 0.31,-0.886 0.669,-1.747 1.031,-2.613 0.405,-0.963 0.805,-1.929 1.2,-2.897 0.354,-0.867 0.714,-1.734 1.053,-2.607 0.361,-0.932 0.716,-1.864 1.118,-2.779 0.399,-0.909 0.799,-1.817 1.195,-2.727 0.466,-1.07 0.958,-2.134 1.513,-3.161 0.462,-0.856 0.931,-1.709 1.399,-2.562 0.307,-0.563 0.605,-1.13 0.899,-1.701 0.385,-0.815 0.72,-1.646 1.038,-2.491 0.34,-0.908 0.745,-1.787 1.157,-2.665 0.392,-0.832 0.829,-1.646 1.192,-2.491 0.174,-0.403 0.32,-0.815 0.472,-1.226 0.228,-0.619 0.535,-1.207 0.84,-1.79 0.069,-0.134 0.142,-0.268 0.216,-0.401 -0.038,-0.111 -0.075,-0.223 -0.108,-0.336 -0.076,-0.253 -0.071,-0.68 -0.083,-0.873 -0.002,-0.04 -0.005,-0.083 -0.007,-0.124 -0.006,-0.087 0.003,-0.176 0.01,-0.263 0.022,-0.301 0.118,-0.679 0.175,-0.939 0.092,-0.413 0.215,-0.817 0.338,-1.223 0.03,-0.101 0.075,-0.196 0.12,-0.292 0.125,-0.269 0.246,-0.544 0.42,-0.784 0.372,-0.512 0.801,-0.82 1.342,-1.133 0.505,-0.294 1.103,-0.33 1.666,-0.357 0.353,-0.016 0.706,0.022 1.056,0.069 0.607,0.083 1.213,0.213 1.806,0.373 0.259,0.071 0.522,0.132 0.778,0.212 1.958,0.614 3.888,1.307 5.822,1.995 0.874,0.311 1.761,0.599 2.626,0.937 0.943,0.368 1.88,0.75 2.817,1.133 0.899,0.367 1.794,0.745 2.7,1.093 1.008,0.389 2.005,0.792 2.994,1.23 0.832,0.369 1.648,0.778 2.475,1.159 0.971,0.446 1.94,0.896 2.906,1.35 0.868,0.409 1.726,0.834 2.606,1.214 0.931,0.404 1.873,0.782 2.808,1.176 0.925,0.388 1.835,0.815 2.734,1.259 0.885,0.437 1.783,0.839 2.693,1.223 0.984,0.414 1.971,0.819 2.953,1.236 0.887,0.378 1.761,0.785 2.636,1.189 1.814,0.835 3.678,1.557 5.524,2.318 0.926,0.382 1.848,0.776 2.784,1.137 0.953,0.369 1.907,0.737 2.858,1.111 0.921,0.36 1.853,0.69 2.782,1.029 0.898,0.327 1.79,0.682 2.678,1.036 0.914,0.366 1.822,0.748 2.732,1.124 0.464,0.192 0.933,0.372 1.396,0.565 0.451,0.188 0.893,0.394 1.334,0.598 1.007,0.465 1.986,0.987 2.962,1.511 0.834,0.448 1.634,0.945 2.425,1.465 0.769,0.506 1.518,1.051 2.231,1.633 0.351,0.288 0.702,0.578 1.041,0.88 0.242,0.214 0.475,0.419 0.675,0.67 0.161,0.204 0.297,0.434 0.399,0.672 0.16,0.375 0.199,0.778 0.164,1.181 -0.046,0.554 -0.198,1.099 -0.368,1.626 -0.108,0.336 -0.265,0.666 -0.417,0.984 -0.171,0.356 -0.344,0.71 -0.525,1.061 -0.134,0.263 -0.274,0.514 -0.468,0.739 -0.157,0.182 -0.337,0.349 -0.504,0.521 -0.002,0 -0.002,-0.001 -0.002,-0.002 0.101,-0.29 0.216,-0.578 0.289,-0.877 0.095,-0.541 0.102,-1.108 0.133,-1.655 0.025,-0.439 0.024,-0.872 0.003,-1.308 -0.046,-0.327 -0.094,-0.647 -0.176,-0.965 -0.01,-0.021 -0.02,-0.042 -0.029,-0.063 -0.022,-0.026 -0.044,-0.051 -0.068,-0.075 -0.111,-0.081 -0.224,-0.153 -0.344,-0.219 -0.159,-0.075 -0.319,-0.148 -0.479,-0.22 0.045,0.351 0.057,0.706 0.04,1.059 -0.026,0.506 -0.071,1.008 -0.136,1.512 -0.118,0.932 -0.284,1.856 -0.445,2.781 -0.172,0.984 -0.297,1.975 -0.453,2.963 -0.179,1.138 -0.419,2.267 -0.678,3.39 -0.437,1.902 -0.96,3.79 -1.57,5.645 -0.305,0.926 -0.64,1.843 -0.962,2.763 -0.339,0.968 -0.68,1.935 -1.019,2.903 -0.661,1.881 -1.319,3.763 -1.956,5.653 -0.633,1.876 -1.237,3.763 -1.891,5.631 -0.313,0.896 -0.655,1.771 -1.031,2.642 -0.449,1.037 -0.955,2.047 -1.464,3.054 -0.763,1.508 -1.566,2.996 -2.337,4.5 -0.4,0.84 -0.801,1.679 -1.155,2.539 -0.376,0.913 -0.746,1.832 -1.138,2.74 -0.413,0.956 -0.836,1.907 -1.264,2.856 -0.465,1.027 -0.943,2.05 -1.472,3.048 -0.387,0.728 -0.787,1.45 -1.188,2.173 -0.386,0.698 -0.746,1.41 -1.134,2.108 -0.71,1.273 -1.426,2.544 -2.103,3.835 -0.1,0.218 -0.196,0.438 -0.282,0.662 -0.094,0.24 -0.196,0.482 -0.283,0.728 0.009,0.036 0.017,0.071 0.026,0.105 0.14,0.322 0.308,0.626 0.473,0.94 0.229,0.436 0.459,0.869 0.657,1.321 0.263,0.599 0.488,1.223 0.591,1.871 0.086,0.542 0.128,1.095 0.081,1.643 -0.043,0.498 -0.167,0.989 -0.27,1.476 -0.096,0.456 -0.237,0.904 -0.368,1.35 -0.214,0.728 -0.514,1.423 -0.917,2.069 -0.063,0.102 -0.142,0.192 -0.219,0.282 -0.214,0.243 -0.397,0.459 -0.632,0.665 -0.094,0.083 -0.205,0.149 -0.308,0.219 -0.193,0.132 -0.383,0.256 -0.578,0.38 -0.261,0.166 -0.52,0.329 -0.798,0.467 -0.318,0.158 -0.669,0.248 -1.006,0.36 -0.167,0.056 -0.334,0.107 -0.504,0.153 -0.4,0.107 -0.81,0.149 -1.219,0.198 -0.676,0.081 -1.364,0.104 -2.045,0.12 -0.469,0.012 -0.939,0.005 -1.408,-0.008 -1.024,-0.027 -2.045,-0.122 -3.064,-0.226 -0.975,-0.1 -1.948,-0.21 -2.921,-0.323 -0.988,-0.114 -1.98,-0.203 -2.965,-0.34 -1.129,-0.158 -2.25,-0.404 -3.361,-0.657 -1.047,-0.239 -2.078,-0.515 -3.109,-0.819 -0.799,-0.236 -1.589,-0.506 -2.377,-0.776 z"
               fill="#8a5b30"
               marker-start="none"
               marker-end="none"
               id="path10" />
            <path
               d="m 119.968,529.975 c -0.792,-0.272 -1.596,-0.563 -2.389,-0.866 -0.824,-0.314 -1.695,-0.667 -2.586,-1.046 -1.038,-0.441 -1.953,-0.843 -2.797,-1.229 l -0.826,-0.38 -0.017,-0.006 c -0.663,-0.305 -1.326,-0.609 -1.991,-0.91 -0.34,-0.155 -0.698,-0.311 -0.988,-0.435 l -0.377,-0.165 c -0.299,-0.131 -0.608,-0.28 -0.88,-0.412 l -0.084,-0.04 c -0.085,-0.041 -0.17,-0.083 -0.256,-0.123 -0.941,-0.474 -1.884,-0.945 -2.826,-1.417 l -0.324,-0.16 c -0.574,-0.297 -1.148,-0.593 -1.723,-0.89 -0.162,-0.084 -0.325,-0.168 -0.488,-0.25 -0.357,-0.182 -0.727,-0.37 -1.086,-0.568 -1.798,-0.99 -3.6,-2.031 -5.281,-3.008 -0.614,-0.359 -1.217,-0.747 -1.799,-1.122 -0.259,-0.167 -0.519,-0.334 -0.78,-0.498 -0.608,-0.386 -1.257,-0.77 -1.829,-1.111 -0.233,-0.138 -0.466,-0.276 -0.698,-0.415 -0.578,-0.345 -1.14,-0.721 -1.685,-1.084 -0.266,-0.179 -0.533,-0.357 -0.801,-0.532 -0.944,-0.615 -1.755,-1.182 -2.477,-1.735 -0.333,-0.254 -0.666,-0.505 -0.999,-0.756 l -0.149,-0.113 c -1.087,-0.819 -2.211,-1.666 -3.273,-2.564 -0.649,-0.626 -1.274,-1.295 -1.881,-1.943 l -0.011,-0.012 c -0.148,-0.159 -0.297,-0.319 -0.446,-0.477 -0.405,-0.431 -0.792,-0.883 -1.153,-1.31 -0.289,-0.339 -0.616,-0.723 -0.917,-1.117 -0.114,-0.195 -0.213,-0.39 -0.294,-0.578 -0.04,-0.158 -0.071,-0.321 -0.093,-0.484 0.002,-0.26 0.025,-0.534 0.071,-0.84 0.095,-0.391 0.212,-0.802 0.356,-1.257 l 0.052,-0.165 c 0.099,-0.314 0.21,-0.67 0.341,-1.004 0.017,-0.026 0.034,-0.051 0.052,-0.075 l 0.021,-0.017 0.019,-0.016 c 0.073,-0.04 0.145,-0.077 0.221,-0.111 0.299,-0.09 0.612,-0.175 0.931,-0.253 0.463,-0.113 0.82,-0.181 1.159,-0.219 0.186,-0.009 0.371,-0.017 0.556,-0.026 h 0.029 c 0.466,-0.021 0.95,-0.042 1.424,-0.079 0.114,-0.009 0.226,-0.027 0.335,-0.054 0.291,-0.072 0.59,-0.17 0.799,-0.262 0.339,-0.147 0.616,-0.319 0.823,-0.513 0.261,-0.244 0.587,-0.576 0.788,-0.974 0.037,-0.072 0.074,-0.143 0.111,-0.213 0.12,-0.233 0.244,-0.473 0.344,-0.721 0.243,-0.6 0.419,-1.166 0.54,-1.729 0.145,-0.684 0.305,-1.481 0.369,-2.29 0.068,-0.884 0.133,-1.825 0.205,-2.961 0.061,-0.986 0.161,-1.959 0.26,-2.865 0.091,-0.846 0.229,-1.698 0.363,-2.521 l 0.074,-0.46 0.053,-0.329 0.002,-0.01 c 0.114,-0.713 0.231,-1.449 0.363,-2.171 0.1,-0.468 0.21,-0.969 0.332,-1.473 0.134,-0.547 0.287,-1.071 0.458,-1.648 0.079,-0.265 0.168,-0.541 0.24,-0.763 l 0.007,-0.021 c 0.078,-0.243 0.159,-0.493 0.232,-0.741 l 0.116,-0.394 c 0.133,-0.447 0.265,-0.895 0.401,-1.342 0.441,-1.447 0.932,-2.898 1.407,-4.3 l 0.004,-0.011 c 0.137,-0.405 0.274,-0.809 0.409,-1.214 0.292,-0.87 0.637,-1.878 1.046,-2.86 0.195,-0.466 0.388,-0.944 0.575,-1.406 l 0.058,-0.139 c 0.171,-0.424 0.343,-0.848 0.517,-1.271 0.231,-0.559 0.461,-1.119 0.689,-1.678 0.132,-0.322 0.263,-0.644 0.395,-0.965 0.136,-0.33 0.265,-0.662 0.406,-1.031 0.217,-0.561 0.441,-1.14 0.693,-1.697 0.138,-0.304 0.277,-0.607 0.417,-0.91 l 0.021,-0.047 c 0.261,-0.564 0.529,-1.148 0.778,-1.729 0.364,-0.856 0.718,-1.635 1.08,-2.383 0.135,-0.259 0.282,-0.526 0.411,-0.761 l 0.036,-0.064 c 0.095,-0.174 0.191,-0.349 0.285,-0.524 0.309,-0.581 0.643,-1.164 0.938,-1.677 0.151,-0.265 0.302,-0.529 0.452,-0.794 0.295,-0.522 0.566,-1.071 0.827,-1.602 l 0.016,-0.032 0.041,-0.085 c 0.209,-0.424 0.429,-0.882 0.624,-1.359 0.138,-0.334 0.271,-0.677 0.399,-1.008 l 0.006,-0.012 c 0.224,-0.577 0.456,-1.175 0.72,-1.758 0.291,-0.645 0.61,-1.317 1.035,-2.18 0.089,-0.176 0.18,-0.351 0.271,-0.525 l 0.025,-0.05 c 0.273,-0.529 0.555,-1.074 0.821,-1.616 0.139,-0.283 0.269,-0.574 0.395,-0.857 l 0.005,-0.012 c 0.087,-0.193 0.173,-0.385 0.261,-0.576 0.068,-0.126 0.136,-0.25 0.205,-0.375 l 0.009,-0.016 0.045,-0.083 c 0.044,-0.081 0.089,-0.163 0.133,-0.245 0.12,-0.232 0.242,-0.476 0.361,-0.724 l 0.023,-0.062 0.024,-0.063 c 0.014,-0.057 0.029,-0.114 0.045,-0.171 l 0.008,-0.031 c 0.061,-0.222 0.122,-0.451 0.12,-0.678 -0.003,-0.318 -0.006,-0.678 -0.103,-1.016 -0.048,-0.167 -0.107,-0.347 -0.185,-0.566 0.003,-0.04 0.008,-0.08 0.014,-0.118 l 0.005,-0.023 0.008,-0.03 c 0.177,0.016 0.364,0.041 0.575,0.074 0.328,0.074 0.651,0.147 0.976,0.234 0.493,0.131 0.95,0.258 1.394,0.387 0.951,0.281 1.936,0.591 2.784,0.86 l 0.304,0.097 c 0.927,0.293 1.885,0.597 2.82,0.918 0.861,0.296 1.619,0.577 2.317,0.861 1.099,0.449 2.068,0.849 2.963,1.223 0.441,0.184 0.894,0.365 1.331,0.538 l 0.056,0.022 c 0.434,0.173 0.884,0.351 1.324,0.534 0.466,0.195 0.935,0.405 1.389,0.607 l 0.037,0.017 0.052,0.023 c 0.23,0.104 0.463,0.217 0.668,0.318 l 0.042,0.019 c 0.158,0.077 0.317,0.155 0.477,0.228 0.507,0.235 1.014,0.468 1.522,0.702 l 0.08,0.035 c 0.391,0.181 0.783,0.361 1.175,0.541 0.534,0.248 1.074,0.505 1.549,0.731 l 0.023,0.011 c 0.342,0.163 0.682,0.325 1.024,0.485 0.94,0.442 1.931,0.876 2.946,1.293 0.778,0.321 1.693,0.703 2.586,1.114 0.495,0.228 1.007,0.472 1.459,0.687 0.47,0.224 0.956,0.456 1.44,0.679 0.738,0.34 1.528,0.665 2.223,0.951 l 0.464,0.191 c 0.814,0.338 1.772,0.74 2.711,1.174 l 0.5,0.232 0.016,0.008 c 0.776,0.359 1.577,0.73 2.372,1.08 0.679,0.301 1.375,0.589 2.048,0.867 l 0.24,0.1 c 0.161,0.066 0.323,0.134 0.485,0.201 0.411,0.172 0.827,0.351 1.23,0.525 l 0.078,0.034 0.055,0.023 c 0.425,0.184 0.865,0.373 1.298,0.554 0.573,0.238 1.159,0.468 1.725,0.691 l 0.02,0.008 c 0.317,0.125 0.633,0.249 0.95,0.375 1.073,0.43 2.172,0.848 3.235,1.252 l 0.017,0.006 c 0.761,0.29 1.626,0.618 2.468,0.948 1.049,0.41 1.845,0.736 2.582,1.055 0.89,0.387 1.795,0.753 2.769,1.121 0.44,0.166 0.88,0.333 1.321,0.501 0.472,0.18 0.943,0.359 1.414,0.536 0.371,0.14 0.751,0.275 1.117,0.406 l 0.023,0.008 0.018,0.006 c 0.475,0.17 0.966,0.344 1.443,0.531 1.138,0.443 2.481,0.975 3.806,1.557 -0.084,0.326 -0.183,0.621 -0.301,0.903 -0.062,0.142 -0.126,0.283 -0.191,0.424 l -0.039,0.088 c -0.081,0.177 -0.169,0.355 -0.253,0.528 l -0.012,0.026 -0.068,0.137 c -0.116,0.224 -0.23,0.449 -0.345,0.673 l -0.097,0.19 -0.086,0.168 c -0.143,0.279 -0.285,0.559 -0.429,0.838 -0.448,0.868 -0.961,1.88 -1.382,2.917 -0.451,1.113 -0.828,2.028 -1.185,2.881 -0.199,0.474 -0.4,0.949 -0.602,1.422 -0.549,1.292 -1.117,2.627 -1.624,3.974 -0.519,1.381 -0.988,2.801 -1.442,4.173 -0.156,0.473 -0.312,0.945 -0.469,1.416 l -0.112,0.332 -0.035,0.104 c -0.586,1.744 -1.192,3.549 -1.802,5.318 -0.63,1.822 -1.298,3.716 -1.888,5.387 l -0.111,0.314 c -0.072,0.206 -0.143,0.413 -0.215,0.62 l -0.006,0.016 c -0.233,0.676 -0.475,1.373 -0.759,2.04 -0.354,0.829 -0.738,1.712 -1.145,2.562 -0.164,0.315 -0.329,0.628 -0.495,0.942 l -0.014,0.024 -0.045,0.084 c -0.164,0.313 -0.329,0.624 -0.49,0.937 -0.219,0.422 -0.438,0.844 -0.658,1.266 l -0.21,0.405 -0.333,0.641 c -0.575,1.109 -1.093,2.223 -1.523,3.168 -0.273,0.596 -0.523,1.215 -0.766,1.815 -0.116,0.288 -0.232,0.574 -0.35,0.858 -0.672,1.616 -1.434,3.31 -2.333,5.18 -0.473,0.898 -0.909,1.685 -1.331,2.406 -0.293,0.498 -0.579,1.006 -0.855,1.497 l -0.01,0.016 c -0.195,0.346 -0.39,0.693 -0.588,1.038 -0.504,0.878 -0.948,1.666 -1.357,2.407 -0.203,0.368 -0.427,0.748 -0.605,1.053 -0.274,0.467 -0.557,0.95 -0.813,1.44 -0.159,0.303 -0.365,0.706 -0.547,1.122 -0.223,0.51 -0.326,1.093 -0.299,1.684 0.019,0.395 0.043,0.756 0.153,1.152 0.059,0.209 0.133,0.419 0.203,0.621 0.028,0.08 0.056,0.156 0.082,0.233 0.067,0.196 0.159,0.388 0.249,0.565 0.124,0.247 0.271,0.496 0.402,0.716 l 0.012,0.021 c 0.093,0.157 0.189,0.321 0.278,0.483 0.179,0.329 0.327,0.638 0.454,0.947 0.046,0.181 0.082,0.371 0.113,0.577 -0.008,0.229 -0.037,0.455 -0.061,0.628 -0.075,0.316 -0.161,0.642 -0.26,0.996 -0.076,0.265 -0.145,0.504 -0.223,0.738 -0.025,0.077 -0.057,0.159 -0.095,0.253 -0.027,0.045 -0.055,0.089 -0.084,0.132 -0.064,0.054 -0.135,0.109 -0.215,0.167 -0.063,0.04 -0.124,0.079 -0.187,0.118 -0.205,0.128 -0.426,0.219 -0.595,0.284 -0.627,0.173 -1.275,0.245 -1.832,0.3 -0.095,0.006 -0.189,0.01 -0.284,0.015 -1.844,0.092 -3.706,-0.076 -5.507,-0.238 l -0.268,-0.024 c -0.629,-0.057 -1.268,-0.12 -1.885,-0.182 l -0.076,-0.007 c -0.337,-0.035 -0.674,-0.068 -1.011,-0.101 -0.651,-0.063 -1.178,-0.122 -1.658,-0.184 -0.402,-0.054 -0.808,-0.129 -1.201,-0.201 l -0.059,-0.011 c -1.497,-0.311 -2.748,-0.597 -3.99,-0.982 -1.999,-0.619 -3.959,-1.267 -5.779,-1.875 -0.973,-0.326 -1.946,-0.651 -2.92,-0.978 -0.165,-0.055 -0.33,-0.112 -0.495,-0.169 z"
               fill="#fae8dc"
               marker-start="none"
               marker-end="none"
               id="path11" />
          </g>
        </g>
      </g>
    </g>
  </g>
</svg>
